<svg width="123" height="35" viewBox="0 0 123 35" fill="none" xmlns="http://www.w3.org/2000/svg">
<rect y="0.937012" width="123" height="34" rx="4" fill="#F59A1B"/>
<path d="M35.5047 10.4886C33.5006 8.51982 30.8316 7.43701 27.9951 7.43701C22.1406 7.43701 17.3765 12.1058 17.3765 17.8433C17.3765 19.6761 17.8644 21.4667 18.7923 23.0464L17.2856 28.437L22.9154 26.9886C24.4652 27.8183 26.211 28.2542 27.9904 28.2542H27.9951C33.845 28.2542 38.7142 23.5854 38.7142 17.8479C38.7142 15.0683 37.5089 12.4573 35.5047 10.4886ZM27.9951 26.5011C26.4071 26.5011 24.8526 26.0839 23.499 25.2964L23.1785 25.1089L19.8399 25.9667L20.7295 22.7745L20.5191 22.4464C19.6342 21.0683 19.1702 19.4792 19.1702 17.8433C19.1702 13.0761 23.1307 9.19482 27.9999 9.19482C30.358 9.19482 32.5726 10.0948 34.2372 11.7308C35.9017 13.3667 36.9253 15.537 36.9205 17.8479C36.9205 22.6198 32.8596 26.5011 27.9951 26.5011ZM32.8357 20.0229C32.5726 19.8917 31.2668 19.2636 31.0229 19.1792C30.7789 19.0901 30.602 19.0479 30.425 19.3104C30.248 19.5729 29.741 20.1542 29.5832 20.3323C29.4301 20.5058 29.2723 20.5292 29.0092 20.3979C27.4499 19.6339 26.4263 19.0339 25.3979 17.3042C25.1252 16.8448 25.6705 16.8776 26.1775 15.8839C26.2636 15.7104 26.2206 15.5604 26.1536 15.4292C26.0867 15.2979 25.5557 14.0183 25.3357 13.4979C25.1205 12.9917 24.9004 13.062 24.7378 13.0526C24.5848 13.0433 24.4078 13.0433 24.2308 13.0433C24.0538 13.0433 23.7668 13.1089 23.5229 13.3667C23.2789 13.6292 22.595 14.2573 22.595 15.537C22.595 16.8167 23.5468 18.0542 23.676 18.2276C23.8099 18.4011 25.5462 21.0261 28.2104 22.1558C29.8941 22.8683 30.5541 22.9292 31.396 22.8073C31.9078 22.7323 32.9649 22.1792 33.1849 21.5698C33.4049 20.9604 33.4049 20.4401 33.3379 20.3323C33.2758 20.2151 33.0988 20.1495 32.8357 20.0229Z" fill="#34201F"/>
<path d="M57.12 21.209C57.2373 21.209 57.3387 21.2543 57.424 21.345L58.272 22.265C57.8027 22.8463 57.224 23.2917 56.536 23.601C55.8533 23.9103 55.032 24.065 54.072 24.065C53.2133 24.065 52.44 23.9183 51.752 23.625C51.0693 23.3317 50.4853 22.9237 50 22.401C49.5147 21.8783 49.1413 21.2543 48.88 20.529C48.624 19.8037 48.496 19.0117 48.496 18.153C48.496 17.2837 48.64 16.489 48.928 15.769C49.216 15.0437 49.6213 14.4197 50.144 13.897C50.6667 13.3743 51.2907 12.969 52.016 12.681C52.7467 12.3877 53.552 12.241 54.432 12.241C55.2907 12.241 56.04 12.3797 56.68 12.657C57.3253 12.929 57.8773 13.2917 58.336 13.745L57.616 14.745C57.5733 14.809 57.5173 14.865 57.448 14.913C57.384 14.961 57.2933 14.985 57.176 14.985C57.0533 14.985 56.928 14.937 56.8 14.841C56.672 14.745 56.5093 14.641 56.312 14.529C56.1147 14.417 55.864 14.313 55.56 14.217C55.2613 14.121 54.88 14.073 54.416 14.073C53.872 14.073 53.3707 14.169 52.912 14.361C52.4587 14.5477 52.0667 14.817 51.736 15.169C51.4107 15.521 51.1547 15.9503 50.968 16.457C50.7867 16.9583 50.696 17.5237 50.696 18.153C50.696 18.8037 50.7867 19.3823 50.968 19.889C51.1547 20.3957 51.4053 20.8223 51.72 21.169C52.0347 21.5157 52.4053 21.7823 52.832 21.969C53.2587 22.1503 53.7173 22.241 54.208 22.241C54.5013 22.241 54.7653 22.225 55 22.193C55.24 22.161 55.4587 22.1103 55.656 22.041C55.8587 21.9717 56.048 21.8837 56.224 21.777C56.4053 21.665 56.584 21.529 56.76 21.369C56.8133 21.321 56.8693 21.2837 56.928 21.257C56.9867 21.225 57.0507 21.209 57.12 21.209ZM63.2944 15.601C63.9077 15.601 64.4624 15.6997 64.9584 15.897C65.4597 16.0943 65.8864 16.3743 66.2384 16.737C66.5904 17.0997 66.8624 17.5423 67.0544 18.065C67.2464 18.5877 67.3424 19.1717 67.3424 19.817C67.3424 20.4677 67.2464 21.0543 67.0544 21.577C66.8624 22.0997 66.5904 22.545 66.2384 22.913C65.8864 23.281 65.4597 23.5637 64.9584 23.761C64.4624 23.9583 63.9077 24.057 63.2944 24.057C62.681 24.057 62.1237 23.9583 61.6224 23.761C61.121 23.5637 60.6917 23.281 60.3344 22.913C59.9824 22.545 59.7077 22.0997 59.5104 21.577C59.3184 21.0543 59.2224 20.4677 59.2224 19.817C59.2224 19.1717 59.3184 18.5877 59.5104 18.065C59.7077 17.5423 59.9824 17.0997 60.3344 16.737C60.6917 16.3743 61.121 16.0943 61.6224 15.897C62.1237 15.6997 62.681 15.601 63.2944 15.601ZM63.2944 22.537C63.977 22.537 64.481 22.3077 64.8064 21.849C65.137 21.3903 65.3024 20.7183 65.3024 19.833C65.3024 18.9477 65.137 18.273 64.8064 17.809C64.481 17.345 63.977 17.113 63.2944 17.113C62.601 17.113 62.089 17.3477 61.7584 17.817C61.4277 18.281 61.2624 18.953 61.2624 19.833C61.2624 20.713 61.4277 21.385 61.7584 21.849C62.089 22.3077 62.601 22.537 63.2944 22.537ZM68.8841 23.937V15.729H70.0921C70.3481 15.729 70.5161 15.849 70.5961 16.089L70.7321 16.737C70.8975 16.5663 71.0708 16.4117 71.2521 16.273C71.4388 16.1343 71.6335 16.0143 71.8361 15.913C72.0441 15.8117 72.2655 15.7343 72.5001 15.681C72.7348 15.6277 72.9908 15.601 73.2681 15.601C73.7161 15.601 74.1135 15.6783 74.4601 15.833C74.8068 15.9823 75.0948 16.1957 75.3241 16.473C75.5588 16.745 75.7348 17.073 75.8521 17.457C75.9748 17.8357 76.0361 18.2543 76.0361 18.713V23.937H74.0601V18.713C74.0601 18.2117 73.9428 17.825 73.7081 17.553C73.4788 17.2757 73.1321 17.137 72.6681 17.137C72.3268 17.137 72.0068 17.2143 71.7081 17.369C71.4095 17.5237 71.1268 17.7343 70.8601 18.001V23.937H68.8841ZM80.6739 24.065C79.9645 24.065 79.4179 23.865 79.0339 23.465C78.6499 23.0597 78.4579 22.5023 78.4579 21.793V17.209H77.6259C77.5192 17.209 77.4259 17.1743 77.3459 17.105C77.2712 17.0357 77.2339 16.9317 77.2339 16.793V16.009L78.5539 15.793L78.9699 13.553C78.9912 13.4463 79.0392 13.3637 79.1139 13.305C79.1939 13.2463 79.2925 13.217 79.4099 13.217H80.4339V15.801H82.5939V17.209H80.4339V21.657C80.4339 21.913 80.4979 22.113 80.6259 22.257C80.7539 22.401 80.9245 22.473 81.1379 22.473C81.2605 22.473 81.3619 22.4597 81.4419 22.433C81.5272 22.401 81.5992 22.369 81.6579 22.337C81.7219 22.305 81.7779 22.2757 81.8259 22.249C81.8739 22.217 81.9219 22.201 81.9699 22.201C82.0285 22.201 82.0765 22.217 82.1139 22.249C82.1512 22.2757 82.1912 22.3183 82.2339 22.377L82.8259 23.337C82.5379 23.577 82.2072 23.7583 81.8339 23.881C81.4605 24.0037 81.0739 24.065 80.6739 24.065ZM90.5974 23.937H89.7094C89.5227 23.937 89.376 23.9103 89.2694 23.857C89.1627 23.7983 89.0827 23.6837 89.0294 23.513L88.8534 22.929C88.6454 23.1157 88.44 23.281 88.2374 23.425C88.04 23.5637 87.8347 23.681 87.6214 23.777C87.408 23.873 87.1814 23.945 86.9414 23.993C86.7014 24.041 86.4347 24.065 86.1414 24.065C85.7947 24.065 85.4747 24.0197 85.1814 23.929C84.888 23.833 84.6347 23.6917 84.4214 23.505C84.2134 23.3183 84.0507 23.0863 83.9334 22.809C83.816 22.5317 83.7574 22.209 83.7574 21.841C83.7574 21.5317 83.8374 21.2277 83.9974 20.929C84.1627 20.625 84.4347 20.353 84.8134 20.113C85.192 19.8677 85.696 19.665 86.3254 19.505C86.9547 19.345 87.736 19.2543 88.6694 19.233V18.753C88.6694 18.2037 88.552 17.7983 88.3174 17.537C88.088 17.2703 87.752 17.137 87.3094 17.137C86.9894 17.137 86.7227 17.1743 86.5094 17.249C86.296 17.3237 86.1094 17.409 85.9494 17.505C85.7947 17.5957 85.6507 17.6783 85.5174 17.753C85.384 17.8277 85.2374 17.865 85.0774 17.865C84.944 17.865 84.8294 17.8303 84.7334 17.761C84.6374 17.6917 84.56 17.6063 84.5014 17.505L84.1414 16.873C85.0854 16.009 86.224 15.577 87.5574 15.577C88.0374 15.577 88.464 15.657 88.8374 15.817C89.216 15.9717 89.536 16.1903 89.7974 16.473C90.0587 16.7503 90.256 17.0837 90.3894 17.473C90.528 17.8623 90.5974 18.289 90.5974 18.753V23.937ZM86.7574 22.705C86.96 22.705 87.1467 22.6863 87.3174 22.649C87.488 22.6117 87.648 22.5557 87.7974 22.481C87.952 22.4063 88.0987 22.3157 88.2374 22.209C88.3814 22.097 88.5254 21.9663 88.6694 21.817V20.433C88.0934 20.4597 87.6107 20.5103 87.2214 20.585C86.8374 20.6543 86.528 20.745 86.2934 20.857C86.0587 20.969 85.8907 21.0997 85.7894 21.249C85.6934 21.3983 85.6454 21.561 85.6454 21.737C85.6454 22.0837 85.7467 22.3317 85.9494 22.481C86.1574 22.6303 86.4267 22.705 86.7574 22.705ZM95.2364 24.065C94.527 24.065 93.9804 23.865 93.5964 23.465C93.2124 23.0597 93.0204 22.5023 93.0204 21.793V17.209H92.1884C92.0817 17.209 91.9884 17.1743 91.9084 17.105C91.8337 17.0357 91.7964 16.9317 91.7964 16.793V16.009L93.1164 15.793L93.5324 13.553C93.5537 13.4463 93.6017 13.3637 93.6764 13.305C93.7564 13.2463 93.855 13.217 93.9724 13.217H94.9964V15.801H97.1564V17.209H94.9964V21.657C94.9964 21.913 95.0604 22.113 95.1884 22.257C95.3164 22.401 95.487 22.473 95.7004 22.473C95.823 22.473 95.9244 22.4597 96.0044 22.433C96.0897 22.401 96.1617 22.369 96.2204 22.337C96.2844 22.305 96.3404 22.2757 96.3884 22.249C96.4364 22.217 96.4844 22.201 96.5324 22.201C96.591 22.201 96.639 22.217 96.6764 22.249C96.7137 22.2757 96.7537 22.3183 96.7964 22.377L97.3884 23.337C97.1004 23.577 96.7697 23.7583 96.3964 23.881C96.023 24.0037 95.6364 24.065 95.2364 24.065ZM102.232 15.601C102.845 15.601 103.4 15.6997 103.896 15.897C104.397 16.0943 104.824 16.3743 105.176 16.737C105.528 17.0997 105.8 17.5423 105.992 18.065C106.184 18.5877 106.28 19.1717 106.28 19.817C106.28 20.4677 106.184 21.0543 105.992 21.577C105.8 22.0997 105.528 22.545 105.176 22.913C104.824 23.281 104.397 23.5637 103.896 23.761C103.4 23.9583 102.845 24.057 102.232 24.057C101.619 24.057 101.061 23.9583 100.56 23.761C100.059 23.5637 99.6292 23.281 99.2719 22.913C98.9199 22.545 98.6452 22.0997 98.4479 21.577C98.2559 21.0543 98.1599 20.4677 98.1599 19.817C98.1599 19.1717 98.2559 18.5877 98.4479 18.065C98.6452 17.5423 98.9199 17.0997 99.2719 16.737C99.6292 16.3743 100.059 16.0943 100.56 15.897C101.061 15.6997 101.619 15.601 102.232 15.601ZM102.232 22.537C102.915 22.537 103.419 22.3077 103.744 21.849C104.075 21.3903 104.24 20.7183 104.24 19.833C104.24 18.9477 104.075 18.273 103.744 17.809C103.419 17.345 102.915 17.113 102.232 17.113C101.539 17.113 101.027 17.3477 100.696 17.817C100.365 18.281 100.2 18.953 100.2 19.833C100.2 20.713 100.365 21.385 100.696 21.849C101.027 22.3077 101.539 22.537 102.232 22.537Z" fill="#34201F"/>
</svg>
