<svg width="199" height="53" viewBox="0 0 199 53" fill="none" xmlns="http://www.w3.org/2000/svg">
<rect y="0.0957031" width="198.642" height="52.3209" rx="5.08023" fill="#F43127"/>
<path d="M33.3516 31.3585C33.5192 31.3585 33.664 31.4233 33.786 31.5529L34.9976 32.8674C34.327 33.698 33.5002 34.3343 32.5172 34.7763C31.5418 35.2182 30.3682 35.4392 28.9966 35.4392C27.7697 35.4392 26.6647 35.2297 25.6817 34.8106C24.7063 34.3914 23.8719 33.8085 23.1784 33.0617C22.485 32.3149 21.9516 31.4233 21.5782 30.3869C21.2124 29.3506 21.0295 28.219 21.0295 26.9921C21.0295 25.75 21.2352 24.6145 21.6467 23.5858C22.0582 22.5494 22.6374 21.6578 23.3842 20.911C24.131 20.1643 25.0226 19.5851 26.0589 19.1736C27.1029 18.7545 28.2536 18.5449 29.5109 18.5449C30.7378 18.5449 31.8085 18.7431 32.7229 19.1393C33.645 19.528 34.4337 20.0461 35.089 20.6939L34.0603 22.1227C33.9993 22.2141 33.9193 22.2941 33.8202 22.3627C33.7288 22.4313 33.5993 22.4656 33.4316 22.4656C33.2563 22.4656 33.0773 22.397 32.8944 22.2598C32.7115 22.1227 32.4791 21.9741 32.1971 21.8141C31.9152 21.654 31.557 21.5054 31.1226 21.3683C30.6959 21.2311 30.151 21.1625 29.4881 21.1625C28.7108 21.1625 27.9945 21.2997 27.3391 21.574C26.6914 21.8407 26.1313 22.2256 25.6589 22.7285C25.194 23.2314 24.8282 23.8449 24.5615 24.5688C24.3024 25.2851 24.1729 26.0929 24.1729 26.9921C24.1729 27.9218 24.3024 28.7486 24.5615 29.4725C24.8282 30.1964 25.1864 30.8061 25.636 31.3014C26.0856 31.7967 26.6152 32.1777 27.2248 32.4444C27.8345 32.7035 28.4898 32.8331 29.1909 32.8331C29.61 32.8331 29.9872 32.8102 30.3225 32.7645C30.6654 32.7188 30.9779 32.6464 31.2598 32.5473C31.5494 32.4483 31.8199 32.3225 32.0714 32.1701C32.3305 32.0101 32.5857 31.8158 32.8372 31.5872C32.9134 31.5186 32.9934 31.4652 33.0773 31.4271C33.1611 31.3814 33.2525 31.3585 33.3516 31.3585ZM42.1736 23.3457C43.05 23.3457 43.8425 23.4867 44.5512 23.7687C45.2675 24.0506 45.8771 24.4507 46.3801 24.9689C46.883 25.4871 47.2716 26.1196 47.546 26.8663C47.8203 27.6131 47.9575 28.4476 47.9575 29.3696C47.9575 30.2993 47.8203 31.1376 47.546 31.8843C47.2716 32.6311 46.883 33.2674 46.3801 33.7932C45.8771 34.319 45.2675 34.7229 44.5512 35.0049C43.8425 35.2868 43.05 35.4278 42.1736 35.4278C41.2973 35.4278 40.501 35.2868 39.7846 35.0049C39.0683 34.7229 38.4549 34.319 37.9443 33.7932C37.4414 33.2674 37.0489 32.6311 36.767 31.8843C36.4927 31.1376 36.3555 30.2993 36.3555 29.3696C36.3555 28.4476 36.4927 27.6131 36.767 26.8663C37.0489 26.1196 37.4414 25.4871 37.9443 24.9689C38.4549 24.4507 39.0683 24.0506 39.7846 23.7687C40.501 23.4867 41.2973 23.3457 42.1736 23.3457ZM42.1736 33.256C43.149 33.256 43.8692 32.9283 44.334 32.273C44.8065 31.6176 45.0427 30.6575 45.0427 29.3925C45.0427 28.1275 44.8065 27.1635 44.334 26.5006C43.8692 25.8376 43.149 25.5061 42.1736 25.5061C41.183 25.5061 40.4514 25.8414 39.979 26.512C39.5065 27.175 39.2703 28.1351 39.2703 29.3925C39.2703 30.6498 39.5065 31.61 39.979 32.273C40.4514 32.9283 41.183 33.256 42.1736 33.256ZM50.1603 35.2563V23.5286H51.8864C52.2521 23.5286 52.4922 23.7001 52.6065 24.043L52.7894 24.9117C52.9951 24.6831 53.2085 24.4736 53.4295 24.2831C53.6581 24.0925 53.8981 23.9287 54.1496 23.7915C54.4087 23.6544 54.683 23.5477 54.9726 23.4715C55.2698 23.3877 55.5937 23.3457 55.9442 23.3457C56.6834 23.3457 57.2892 23.5477 57.7616 23.9516C58.2417 24.3478 58.5999 24.8774 58.8361 25.5404C59.019 25.1518 59.2476 24.8203 59.5219 24.546C59.7963 24.264 60.0973 24.0354 60.4249 23.8601C60.7526 23.6849 61.0993 23.5553 61.4651 23.4715C61.8385 23.3877 62.2119 23.3457 62.5853 23.3457C63.233 23.3457 63.8084 23.4448 64.3113 23.6429C64.8143 23.8411 65.2372 24.1306 65.5801 24.5117C65.923 24.8927 66.1821 25.3575 66.3574 25.9062C66.5403 26.4548 66.6317 27.0835 66.6317 27.7922V35.2563H63.8084V27.7922C63.8084 27.0454 63.6445 26.4853 63.3169 26.1119C62.9892 25.7309 62.5091 25.5404 61.8766 25.5404C61.5871 25.5404 61.3165 25.5899 61.0651 25.689C60.8212 25.7881 60.604 25.9329 60.4135 26.1234C60.2306 26.3063 60.0858 26.5387 59.9792 26.8206C59.8725 27.1026 59.8191 27.4264 59.8191 27.7922V35.2563H56.9844V27.7922C56.9844 27.0073 56.8243 26.4358 56.5043 26.0776C56.1918 25.7195 55.727 25.5404 55.1098 25.5404C54.7059 25.5404 54.3249 25.6433 53.9667 25.849C53.6162 26.0472 53.2885 26.3215 52.9837 26.672V35.2563H50.1603ZM69.4047 39.0856V23.5286H71.1307C71.3136 23.5286 71.4698 23.5705 71.5994 23.6544C71.7289 23.7382 71.8127 23.8677 71.8508 24.043L72.0794 25.1289C72.5519 24.5879 73.0929 24.1497 73.7026 23.8144C74.3198 23.4791 75.0399 23.3115 75.8629 23.3115C76.503 23.3115 77.086 23.4448 77.6118 23.7115C78.1452 23.9782 78.6024 24.3669 78.9835 24.8774C79.3721 25.3804 79.6693 26.0052 79.875 26.752C80.0884 27.4912 80.1951 28.3409 80.1951 29.301C80.1951 30.1774 80.077 30.989 79.8408 31.7357C79.6045 32.4825 79.2654 33.1303 78.8234 33.6789C78.3891 34.2276 77.8595 34.6582 77.2346 34.9706C76.6173 35.2754 75.9239 35.4278 75.1542 35.4278C74.4913 35.4278 73.9274 35.3287 73.4625 35.1306C73.0053 34.9249 72.5938 34.6429 72.228 34.2848V39.0856H69.4047ZM74.8913 25.5404C74.3046 25.5404 73.8016 25.6661 73.3825 25.9176C72.971 26.1615 72.5862 26.5082 72.228 26.9578V32.2158C72.5481 32.6121 72.8948 32.8902 73.2682 33.0503C73.6492 33.2027 74.0569 33.2789 74.4913 33.2789C74.918 33.2789 75.3028 33.1989 75.6458 33.0388C75.9963 32.8788 76.2897 32.6349 76.5259 32.3073C76.7698 31.9796 76.9565 31.5681 77.086 31.0728C77.2155 30.5698 77.2803 29.9793 77.2803 29.301C77.2803 28.6152 77.2232 28.0361 77.1089 27.5636C77.0022 27.0835 76.846 26.6949 76.6402 26.3977C76.4345 26.1005 76.183 25.8833 75.8858 25.7462C75.5962 25.609 75.2647 25.5404 74.8913 25.5404ZM82.331 35.2563V23.5286H83.9884C84.278 23.5286 84.4799 23.582 84.5942 23.6887C84.7085 23.7953 84.7847 23.9782 84.8229 24.2373L84.9943 25.6547C85.4134 24.9308 85.9049 24.3593 86.4688 23.9401C87.0328 23.521 87.6652 23.3115 88.3663 23.3115C88.9455 23.3115 89.4255 23.4448 89.8066 23.7115L89.4408 25.8262C89.4179 25.9633 89.3684 26.0624 89.2922 26.1234C89.216 26.1767 89.1131 26.2034 88.9836 26.2034C88.8693 26.2034 88.713 26.1767 88.5149 26.1234C88.3168 26.07 88.0539 26.0434 87.7262 26.0434C87.1394 26.0434 86.6365 26.2072 86.2174 26.5349C85.7983 26.8549 85.4439 27.3274 85.1543 27.9522V35.2563H82.331ZM100.518 35.2563H99.2494C98.9827 35.2563 98.7731 35.2182 98.6207 35.142C98.4683 35.0582 98.354 34.8944 98.2778 34.6505L98.0263 33.8161C97.7292 34.0828 97.4358 34.319 97.1462 34.5248C96.8642 34.7229 96.5709 34.8906 96.266 35.0277C95.9612 35.1649 95.6374 35.2678 95.2945 35.3364C94.9515 35.4049 94.5705 35.4392 94.1514 35.4392C93.6561 35.4392 93.1989 35.3745 92.7797 35.2449C92.3606 35.1078 91.9987 34.9058 91.6938 34.6391C91.3966 34.3724 91.1642 34.0409 90.9966 33.6446C90.8289 33.2484 90.7451 32.7874 90.7451 32.2616C90.7451 31.8196 90.8594 31.3852 91.088 30.9585C91.3243 30.5241 91.7129 30.1355 92.2539 29.7926C92.795 29.442 93.5151 29.1525 94.4143 28.9238C95.3135 28.6952 96.4299 28.5657 97.7634 28.5352V27.8494C97.7634 27.0645 97.5958 26.4853 97.2605 26.1119C96.9328 25.7309 96.4527 25.5404 95.8203 25.5404C95.363 25.5404 94.982 25.5938 94.6772 25.7004C94.3724 25.8071 94.1057 25.929 93.8771 26.0662C93.6561 26.1958 93.4503 26.3139 93.2598 26.4206C93.0693 26.5272 92.8598 26.5806 92.6311 26.5806C92.4406 26.5806 92.2768 26.5311 92.1396 26.432C92.0025 26.3329 91.892 26.211 91.8081 26.0662L91.2938 25.1632C92.6426 23.9287 94.2695 23.3115 96.1746 23.3115C96.8604 23.3115 97.4701 23.4258 98.0035 23.6544C98.5445 23.8754 99.0018 24.1878 99.3751 24.5917C99.7485 24.9879 100.03 25.4642 100.221 26.0205C100.419 26.5768 100.518 27.1864 100.518 27.8494V35.2563ZM95.0316 33.496C95.3211 33.496 95.5878 33.4694 95.8317 33.416C96.0755 33.3627 96.3042 33.2827 96.5175 33.176C96.7385 33.0693 96.9481 32.9398 97.1462 32.7874C97.3519 32.6273 97.5577 32.4406 97.7634 32.2273V30.2498C96.9404 30.2879 96.2508 30.3603 95.6945 30.467C95.1459 30.566 94.7039 30.6956 94.3686 30.8556C94.0333 31.0156 93.7932 31.2023 93.6485 31.4157C93.5113 31.6291 93.4427 31.8615 93.4427 32.113C93.4427 32.6083 93.5875 32.9626 93.8771 33.176C94.1743 33.3894 94.5591 33.496 95.0316 33.496ZM103.294 35.2563V23.5286H104.952C105.241 23.5286 105.443 23.582 105.558 23.6887C105.672 23.7953 105.748 23.9782 105.786 24.2373L105.958 25.6547C106.377 24.9308 106.868 24.3593 107.432 23.9401C107.996 23.521 108.629 23.3115 109.33 23.3115C109.909 23.3115 110.389 23.4448 110.77 23.7115L110.404 25.8262C110.381 25.9633 110.332 26.0624 110.256 26.1234C110.179 26.1767 110.076 26.2034 109.947 26.2034C109.833 26.2034 109.676 26.1767 109.478 26.1234C109.28 26.07 109.017 26.0434 108.69 26.0434C108.103 26.0434 107.6 26.2072 107.181 26.5349C106.762 26.8549 106.407 27.3274 106.118 27.9522V35.2563H103.294ZM131.735 35.2563H129.357C129.091 35.2563 128.87 35.1916 128.694 35.062C128.527 34.9249 128.405 34.7572 128.329 34.5591L127.094 31.1871H120.247L119.013 34.5591C118.952 34.7344 118.83 34.8944 118.647 35.0392C118.472 35.184 118.255 35.2563 117.995 35.2563H115.606L122.099 18.7278H125.242L131.735 35.2563ZM121.036 29.0153H126.305L124.294 23.5172C124.202 23.2734 124.099 22.9876 123.985 22.6599C123.878 22.3246 123.772 21.9627 123.665 21.574C123.558 21.9627 123.452 22.3246 123.345 22.6599C123.246 22.9952 123.147 23.2886 123.048 23.5401L121.036 29.0153ZM137.335 23.3229C137.838 23.3229 138.31 23.3762 138.752 23.4829C139.194 23.582 139.598 23.7306 139.964 23.9287H143.336V24.9803C143.336 25.1556 143.29 25.2927 143.199 25.3918C143.107 25.4909 142.951 25.5595 142.73 25.5976L141.679 25.7919C141.755 25.99 141.812 26.1996 141.85 26.4206C141.896 26.6415 141.919 26.874 141.919 27.1178C141.919 27.697 141.801 28.2228 141.564 28.6952C141.336 29.1601 141.016 29.5563 140.604 29.884C140.2 30.2117 139.716 30.467 139.152 30.6498C138.596 30.8251 137.99 30.9128 137.335 30.9128C136.893 30.9128 136.462 30.8708 136.043 30.787C135.678 31.008 135.495 31.2557 135.495 31.53C135.495 31.7662 135.601 31.9415 135.815 32.0558C136.036 32.1625 136.321 32.2387 136.672 32.2844C137.03 32.3301 137.434 32.3606 137.884 32.3759C138.333 32.3835 138.794 32.4063 139.267 32.4444C139.739 32.4825 140.2 32.5511 140.65 32.6502C141.099 32.7416 141.5 32.8902 141.85 33.096C142.208 33.3017 142.494 33.5837 142.707 33.9418C142.928 34.2924 143.039 34.7458 143.039 35.3021C143.039 35.8203 142.909 36.3232 142.65 36.8109C142.399 37.2986 142.029 37.733 141.541 38.114C141.061 38.495 140.471 38.7998 139.77 39.0284C139.069 39.2646 138.268 39.3828 137.369 39.3828C136.478 39.3828 135.704 39.2951 135.049 39.1199C134.394 38.9522 133.849 38.7236 133.414 38.434C132.988 38.1521 132.668 37.8244 132.454 37.451C132.241 37.0776 132.134 36.689 132.134 36.2851C132.134 35.7364 132.302 35.2754 132.637 34.902C132.972 34.5286 133.437 34.2314 134.032 34.0104C133.742 33.8504 133.51 33.637 133.334 33.3703C133.159 33.1036 133.071 32.7569 133.071 32.3301C133.071 32.1549 133.102 31.9758 133.163 31.7929C133.224 31.6024 133.315 31.4157 133.437 31.2328C133.567 31.0499 133.727 30.8785 133.917 30.7184C134.108 30.5508 134.333 30.4022 134.592 30.2726C133.997 29.9526 133.529 29.5258 133.186 28.9924C132.85 28.459 132.683 27.8341 132.683 27.1178C132.683 26.5387 132.797 26.0167 133.026 25.5518C133.262 25.0794 133.586 24.6793 133.997 24.3516C134.416 24.0163 134.908 23.7611 135.472 23.5858C136.043 23.4105 136.664 23.3229 137.335 23.3229ZM140.433 35.7822C140.433 35.5535 140.364 35.3668 140.227 35.2221C140.09 35.0773 139.903 34.9668 139.667 34.8906C139.431 34.8067 139.152 34.7458 138.832 34.7077C138.52 34.6696 138.185 34.6429 137.827 34.6277C137.476 34.6048 137.11 34.5858 136.729 34.5705C136.356 34.5477 135.994 34.5134 135.643 34.4676C135.323 34.6429 135.064 34.8525 134.866 35.0963C134.676 35.3326 134.58 35.6069 134.58 35.9193C134.58 36.1251 134.63 36.3156 134.729 36.4908C134.836 36.6737 134.999 36.8299 135.22 36.9595C135.449 37.089 135.742 37.1881 136.101 37.2567C136.459 37.3329 136.897 37.371 137.415 37.371C137.941 37.371 138.394 37.3291 138.775 37.2453C139.156 37.1691 139.469 37.0586 139.713 36.9138C139.964 36.7766 140.147 36.609 140.261 36.4108C140.376 36.2203 140.433 36.0108 140.433 35.7822ZM137.335 29.1067C137.686 29.1067 137.99 29.061 138.249 28.9696C138.509 28.8705 138.722 28.7371 138.89 28.5695C139.065 28.4018 139.194 28.1999 139.278 27.9637C139.37 27.7274 139.415 27.4684 139.415 27.1864C139.415 26.6073 139.24 26.15 138.89 25.8147C138.547 25.4718 138.028 25.3004 137.335 25.3004C136.642 25.3004 136.12 25.4718 135.769 25.8147C135.426 26.15 135.255 26.6073 135.255 27.1864C135.255 27.4607 135.297 27.716 135.38 27.9522C135.472 28.1885 135.601 28.3942 135.769 28.5695C135.944 28.7371 136.161 28.8705 136.421 28.9696C136.687 29.061 136.992 29.1067 137.335 29.1067ZM150.116 23.3457C150.992 23.3457 151.785 23.4867 152.494 23.7687C153.21 24.0506 153.82 24.4507 154.323 24.9689C154.825 25.4871 155.214 26.1196 155.488 26.8663C155.763 27.6131 155.9 28.4476 155.9 29.3696C155.9 30.2993 155.763 31.1376 155.488 31.8843C155.214 32.6311 154.825 33.2674 154.323 33.7932C153.82 34.319 153.21 34.7229 152.494 35.0049C151.785 35.2868 150.992 35.4278 150.116 35.4278C149.24 35.4278 148.443 35.2868 147.727 35.0049C147.011 34.7229 146.397 34.319 145.887 33.7932C145.384 33.2674 144.991 32.6311 144.709 31.8843C144.435 31.1376 144.298 30.2993 144.298 29.3696C144.298 28.4476 144.435 27.6131 144.709 26.8663C144.991 26.1196 145.384 25.4871 145.887 24.9689C146.397 24.4507 147.011 24.0506 147.727 23.7687C148.443 23.4867 149.24 23.3457 150.116 23.3457ZM150.116 33.256C151.092 33.256 151.812 32.9283 152.276 32.273C152.749 31.6176 152.985 30.6575 152.985 29.3925C152.985 28.1275 152.749 27.1635 152.276 26.5006C151.812 25.8376 151.092 25.5061 150.116 25.5061C149.125 25.5061 148.394 25.8414 147.921 26.512C147.449 27.175 147.213 28.1351 147.213 29.3925C147.213 30.6498 147.449 31.61 147.921 32.273C148.394 32.9283 149.125 33.256 150.116 33.256ZM158.103 35.2563V23.5286H159.76C160.05 23.5286 160.252 23.582 160.366 23.6887C160.48 23.7953 160.557 23.9782 160.595 24.2373L160.766 25.6547C161.185 24.9308 161.677 24.3593 162.241 23.9401C162.805 23.521 163.437 23.3115 164.138 23.3115C164.717 23.3115 165.197 23.4448 165.578 23.7115L165.213 25.8262C165.19 25.9633 165.14 26.0624 165.064 26.1234C164.988 26.1767 164.885 26.2034 164.755 26.2034C164.641 26.2034 164.485 26.1767 164.287 26.1234C164.089 26.07 163.826 26.0434 163.498 26.0434C162.911 26.0434 162.408 26.2072 161.989 26.5349C161.57 26.8549 161.216 27.3274 160.926 27.9522V35.2563H158.103ZM176.29 35.2563H175.021C174.755 35.2563 174.545 35.2182 174.393 35.142C174.24 35.0582 174.126 34.8944 174.05 34.6505L173.798 33.8161C173.501 34.0828 173.208 34.319 172.918 34.5248C172.636 34.7229 172.343 34.8906 172.038 35.0277C171.733 35.1649 171.409 35.2678 171.066 35.3364C170.723 35.4049 170.342 35.4392 169.923 35.4392C169.428 35.4392 168.971 35.3745 168.552 35.2449C168.132 35.1078 167.77 34.9058 167.466 34.6391C167.168 34.3724 166.936 34.0409 166.768 33.6446C166.601 33.2484 166.517 32.7874 166.517 32.2616C166.517 31.8196 166.631 31.3852 166.86 30.9585C167.096 30.5241 167.485 30.1355 168.026 29.7926C168.567 29.442 169.287 29.1525 170.186 28.9238C171.085 28.6952 172.202 28.5657 173.535 28.5352V27.8494C173.535 27.0645 173.368 26.4853 173.032 26.1119C172.705 25.7309 172.225 25.5404 171.592 25.5404C171.135 25.5404 170.754 25.5938 170.449 25.7004C170.144 25.8071 169.878 25.929 169.649 26.0662C169.428 26.1958 169.222 26.3139 169.032 26.4206C168.841 26.5272 168.632 26.5806 168.403 26.5806C168.212 26.5806 168.049 26.5311 167.911 26.432C167.774 26.3329 167.664 26.211 167.58 26.0662L167.066 25.1632C168.414 23.9287 170.041 23.3115 171.946 23.3115C172.632 23.3115 173.242 23.4258 173.775 23.6544C174.316 23.8754 174.774 24.1878 175.147 24.5917C175.52 24.9879 175.802 25.4642 175.993 26.0205C176.191 26.5768 176.29 27.1864 176.29 27.8494V35.2563ZM170.803 33.496C171.093 33.496 171.36 33.4694 171.604 33.416C171.847 33.3627 172.076 33.2827 172.289 33.176C172.51 33.0693 172.72 32.9398 172.918 32.7874C173.124 32.6273 173.33 32.4406 173.535 32.2273V30.2498C172.712 30.2879 172.023 30.3603 171.466 30.467C170.918 30.566 170.476 30.6956 170.14 30.8556C169.805 31.0156 169.565 31.2023 169.42 31.4157C169.283 31.6291 169.215 31.8615 169.215 32.113C169.215 32.6083 169.359 32.9626 169.649 33.176C169.946 33.3894 170.331 33.496 170.803 33.496Z" fill="white"/>
</svg>
