<svg width="388" height="31" viewBox="0 0 388 31" fill="none" xmlns="http://www.w3.org/2000/svg">
<rect x="185.466" y="0.115234" width="201.851" height="30.667" rx="6.35029" fill="#F59A1B"/>
<path d="M2.77249 16.634V22.7607H0.566397V6.38081H5.40151C6.43787 6.38081 7.33707 6.50274 8.09911 6.74659C8.86876 6.98282 9.50506 7.32192 10.008 7.7639C10.5109 8.20588 10.8843 8.73931 11.1282 9.36418C11.3797 9.98904 11.5054 10.6863 11.5054 11.456C11.5054 12.218 11.372 12.9153 11.1053 13.5477C10.8386 14.1802 10.4462 14.7251 9.92799 15.1823C9.41743 15.6395 8.78113 15.9977 8.01909 16.2568C7.25706 16.5082 6.38453 16.634 5.40151 16.634H2.77249ZM2.77249 14.8737H5.40151C6.034 14.8737 6.59028 14.7899 7.07036 14.6222C7.55806 14.4546 7.96575 14.2221 8.29343 13.925C8.6211 13.6201 8.86876 13.2582 9.03641 12.8391C9.20406 12.4199 9.28788 11.9589 9.28788 11.456C9.28788 10.412 8.96402 9.5966 8.31629 9.00983C7.67618 8.42306 6.70459 8.12968 5.40151 8.12968H2.77249V14.8737ZM21.9172 22.7607H21.0142C20.816 22.7607 20.656 22.7303 20.5341 22.6693C20.4122 22.6083 20.3321 22.4788 20.294 22.2807L20.0654 21.2062C19.7606 21.4805 19.4634 21.7282 19.1739 21.9492C18.8843 22.1625 18.5795 22.3454 18.2594 22.4978C17.9394 22.6426 17.5964 22.7531 17.2307 22.8293C16.8725 22.9055 16.4724 22.9436 16.0305 22.9436C15.5809 22.9436 15.1579 22.8827 14.7617 22.7607C14.373 22.6312 14.0339 22.4407 13.7444 22.1892C13.4548 21.9377 13.2224 21.6215 13.0471 21.2405C12.8794 20.8518 12.7956 20.3946 12.7956 19.8688C12.7956 19.4116 12.9214 18.9734 13.1728 18.5543C13.4243 18.1276 13.8282 17.7504 14.3845 17.4227C14.9484 17.095 15.6837 16.8283 16.5906 16.6226C17.4974 16.4092 18.6061 16.2873 19.9168 16.2568V15.3538C19.9168 14.4546 19.7225 13.7764 19.3339 13.3191C18.9529 12.8543 18.3851 12.6219 17.6307 12.6219C17.1354 12.6219 16.7163 12.6866 16.3734 12.8162C16.0381 12.9381 15.7447 13.0791 15.4932 13.2391C15.2494 13.3915 15.036 13.5325 14.8531 13.662C14.6778 13.784 14.5026 13.8449 14.3273 13.8449C14.1901 13.8449 14.0682 13.8106 13.9615 13.7421C13.8625 13.6659 13.7825 13.5744 13.7215 13.4677L13.3557 12.8162C13.9958 12.1989 14.6855 11.7379 15.4246 11.4331C16.1638 11.1283 16.983 10.9759 17.8822 10.9759C18.5299 10.9759 19.1053 11.0826 19.6082 11.2959C20.1112 11.5093 20.5341 11.8065 20.877 12.1875C21.2199 12.5685 21.479 13.0296 21.6543 13.5706C21.8295 14.1117 21.9172 14.706 21.9172 15.3538V22.7607ZM16.6363 21.5148C16.9944 21.5148 17.3221 21.4805 17.6193 21.4119C17.9165 21.3357 18.1946 21.2329 18.4537 21.1033C18.7204 20.9662 18.9719 20.8023 19.2081 20.6118C19.452 20.4213 19.6882 20.2041 19.9168 19.9603V17.5484C18.9795 17.5789 18.1832 17.6551 17.5279 17.777C16.8725 17.8913 16.3391 18.0437 15.9276 18.2343C15.5161 18.4248 15.2151 18.6496 15.0246 18.9087C14.8417 19.1677 14.7502 19.4573 14.7502 19.7774C14.7502 20.0822 14.7998 20.3451 14.8988 20.5661C14.9979 20.7871 15.1313 20.97 15.2989 21.1147C15.4666 21.2519 15.6647 21.3548 15.8933 21.4234C16.1219 21.4843 16.3696 21.5148 16.6363 21.5148ZM24.9997 22.7607V11.1816H26.1656C26.3866 11.1816 26.539 11.2235 26.6228 11.3074C26.7066 11.3912 26.7638 11.536 26.7943 11.7417L26.9314 13.5477C27.3277 12.74 27.8154 12.1113 28.3945 11.6617C28.9813 11.2045 29.6671 10.9759 30.452 10.9759C30.7721 10.9759 31.0616 11.014 31.3207 11.0902C31.5798 11.1588 31.8199 11.2578 32.0409 11.3874L31.778 12.9076C31.7246 13.0981 31.6065 13.1934 31.4236 13.1934C31.3169 13.1934 31.1531 13.1591 30.9321 13.0905C30.7111 13.0143 30.4025 12.9762 30.0062 12.9762C29.2975 12.9762 28.7032 13.182 28.2231 13.5935C27.7506 14.005 27.3544 14.6032 27.0343 15.3881V22.7607H24.9997ZM42.3001 22.7607H41.3971C41.199 22.7607 41.0389 22.7303 40.917 22.6693C40.7951 22.6083 40.7151 22.4788 40.677 22.2807L40.4484 21.2062C40.1436 21.4805 39.8464 21.7282 39.5568 21.9492C39.2672 22.1625 38.9624 22.3454 38.6423 22.4978C38.3223 22.6426 37.9794 22.7531 37.6136 22.8293C37.2554 22.9055 36.8554 22.9436 36.4134 22.9436C35.9638 22.9436 35.5409 22.8827 35.1446 22.7607C34.756 22.6312 34.4169 22.4407 34.1273 22.1892C33.8377 21.9377 33.6053 21.6215 33.43 21.2405C33.2624 20.8518 33.1786 20.3946 33.1786 19.8688C33.1786 19.4116 33.3043 18.9734 33.5558 18.5543C33.8072 18.1276 34.2111 17.7504 34.7674 17.4227C35.3313 17.095 36.0667 16.8283 36.9735 16.6226C37.8803 16.4092 38.9891 16.2873 40.2998 16.2568V15.3538C40.2998 14.4546 40.1055 13.7764 39.7168 13.3191C39.3358 12.8543 38.7681 12.6219 38.0137 12.6219C37.5183 12.6219 37.0992 12.6866 36.7563 12.8162C36.421 12.9381 36.1276 13.0791 35.8762 13.2391C35.6323 13.3915 35.4189 13.5325 35.2361 13.662C35.0608 13.784 34.8855 13.8449 34.7102 13.8449C34.5731 13.8449 34.4512 13.8106 34.3445 13.7421C34.2454 13.6659 34.1654 13.5744 34.1044 13.4677L33.7387 12.8162C34.3788 12.1989 35.0684 11.7379 35.8076 11.4331C36.5467 11.1283 37.3659 10.9759 38.2651 10.9759C38.9129 10.9759 39.4882 11.0826 39.9911 11.2959C40.4941 11.5093 40.917 11.8065 41.2599 12.1875C41.6028 12.5685 41.8619 13.0296 42.0372 13.5706C42.2125 14.1117 42.3001 14.706 42.3001 15.3538V22.7607ZM37.0192 21.5148C37.3774 21.5148 37.705 21.4805 38.0022 21.4119C38.2994 21.3357 38.5776 21.2329 38.8367 21.1033C39.1034 20.9662 39.3548 20.8023 39.5911 20.6118C39.8349 20.4213 40.0712 20.2041 40.2998 19.9603V17.5484C39.3625 17.5789 38.5661 17.6551 37.9108 17.777C37.2554 17.8913 36.722 18.0437 36.3105 18.2343C35.899 18.4248 35.598 18.6496 35.4075 18.9087C35.2246 19.1677 35.1332 19.4573 35.1332 19.7774C35.1332 20.0822 35.1827 20.3451 35.2818 20.5661C35.3808 20.7871 35.5142 20.97 35.6818 21.1147C35.8495 21.2519 36.0476 21.3548 36.2762 21.4234C36.5048 21.4843 36.7525 21.5148 37.0192 21.5148ZM59.1646 11.1816V26.6814H57.13V21.0462C56.6423 21.6101 56.086 22.0635 55.4611 22.4064C54.8438 22.7493 54.1352 22.9208 53.335 22.9208C52.6721 22.9208 52.07 22.795 51.529 22.5436C50.988 22.2845 50.5269 21.9073 50.1459 21.4119C49.7649 20.9166 49.4715 20.2994 49.2658 19.5602C49.06 18.821 48.9571 17.9714 48.9571 17.0112C48.9571 16.1577 49.0714 15.3652 49.3 14.6336C49.5287 13.8945 49.8563 13.2544 50.2831 12.7133C50.7174 12.1723 51.2432 11.7493 51.8605 11.4445C52.4777 11.1321 53.1788 10.9759 53.9637 10.9759C54.7105 10.9759 55.343 11.1092 55.8612 11.3759C56.387 11.6427 56.8556 12.0199 57.2671 12.5076L57.4043 11.6046C57.4805 11.3226 57.6634 11.1816 57.953 11.1816H59.1646ZM54.0094 21.2748C54.6724 21.2748 55.2515 21.1224 55.7469 20.8176C56.2498 20.5127 56.7108 20.0822 57.13 19.5259V13.925C56.7642 13.4372 56.3565 13.0905 55.9069 12.8848C55.4573 12.6714 54.962 12.5647 54.4209 12.5647C53.3388 12.5647 52.5082 12.9495 51.9291 13.7192C51.3499 14.4889 51.0603 15.5862 51.0603 17.0112C51.0603 17.7656 51.1251 18.4133 51.2547 18.9544C51.3842 19.4878 51.5747 19.9298 51.8262 20.2803C52.0777 20.6232 52.3863 20.8747 52.7521 21.0347C53.1178 21.1948 53.537 21.2748 54.0094 21.2748ZM64.3333 11.1816V18.5657C64.3333 19.4421 64.5353 20.1203 64.9391 20.6004C65.343 21.0805 65.9526 21.3205 66.768 21.3205C67.3624 21.3205 67.9225 21.1795 68.4483 20.8976C68.9741 20.6156 69.458 20.2232 69.9 19.7202V11.1816H71.9346V22.7607H70.723C70.4334 22.7607 70.2505 22.6198 70.1743 22.3378L70.0143 21.0919C69.5113 21.6482 68.9474 22.0978 68.3226 22.4407C67.6977 22.776 66.9814 22.9436 66.1736 22.9436C65.5411 22.9436 64.9811 22.8408 64.4933 22.635C64.0133 22.4216 63.6094 22.1244 63.2817 21.7434C62.954 21.3624 62.7064 20.9014 62.5387 20.3603C62.3787 19.8193 62.2987 19.2211 62.2987 18.5657V11.1816H64.3333ZM79.8597 10.9987C80.5532 10.9987 81.1933 11.1169 81.78 11.3531C82.3668 11.5817 82.8736 11.917 83.3003 12.359C83.727 12.7933 84.0585 13.3344 84.2948 13.9821C84.5386 14.6222 84.6605 15.3538 84.6605 16.1768C84.6605 16.4968 84.6262 16.7102 84.5577 16.8169C84.4891 16.9236 84.3595 16.9769 84.169 16.9769H76.4649C76.4801 17.7085 76.5792 18.3448 76.762 18.8858C76.9449 19.4268 77.1964 19.8803 77.5165 20.246C77.8365 20.6042 78.2175 20.8747 78.6595 21.0576C79.1015 21.2329 79.5968 21.3205 80.1455 21.3205C80.656 21.3205 81.0942 21.2633 81.46 21.149C81.8334 21.0271 82.1534 20.8976 82.4202 20.7604C82.6869 20.6232 82.9079 20.4975 83.0831 20.3832C83.266 20.2613 83.4222 20.2003 83.5518 20.2003C83.7194 20.2003 83.849 20.2651 83.9404 20.3946L84.5119 21.1376C84.2605 21.4424 83.9595 21.7091 83.6089 21.9377C83.2584 22.1587 82.8812 22.3416 82.4773 22.4864C82.081 22.6312 81.6695 22.7379 81.2428 22.8065C80.8161 22.8827 80.3931 22.9208 79.974 22.9208C79.1739 22.9208 78.4347 22.7874 77.7565 22.5207C77.0859 22.2464 76.503 21.8501 76.0076 21.3319C75.5199 20.8061 75.1389 20.1584 74.8646 19.3887C74.5902 18.6191 74.4531 17.7351 74.4531 16.7369C74.4531 15.9291 74.575 15.1747 74.8189 14.4736C75.0703 13.7725 75.4285 13.1667 75.8933 12.6562C76.3582 12.138 76.9259 11.7341 77.5965 11.4445C78.2671 11.1473 79.0215 10.9987 79.8597 10.9987ZM79.9054 12.4961C78.9224 12.4961 78.1489 12.7819 77.585 13.3534C77.0211 13.9173 76.6706 14.7022 76.5334 15.7081H82.8317C82.8317 15.2357 82.7669 14.8051 82.6373 14.4165C82.5078 14.0202 82.3173 13.6811 82.0658 13.3991C81.8143 13.1096 81.5057 12.8886 81.1399 12.7362C80.7818 12.5762 80.3703 12.4961 79.9054 12.4961ZM87.2647 22.7607V11.1816H88.4764C88.7659 11.1816 88.9488 11.3226 89.025 11.6046L89.1736 12.7933C89.6004 12.2675 90.0766 11.837 90.6024 11.5017C91.1359 11.1664 91.7531 10.9987 92.4542 10.9987C93.2391 10.9987 93.8716 11.2159 94.3516 11.6503C94.8393 12.0846 95.1899 12.6714 95.4033 13.4106C95.5633 12.9915 95.7728 12.6295 96.0319 12.3247C96.2986 12.0199 96.5958 11.7684 96.9235 11.5703C97.2512 11.3721 97.5979 11.2274 97.9637 11.1359C98.3371 11.0445 98.7143 10.9987 99.0953 10.9987C99.7049 10.9987 100.246 11.0978 100.718 11.2959C101.199 11.4864 101.602 11.7684 101.93 12.1418C102.265 12.5152 102.521 12.9762 102.696 13.5249C102.871 14.0659 102.959 14.687 102.959 15.3881V22.7607H100.924V15.3881C100.924 14.4812 100.726 13.7954 100.33 13.3306C99.9336 12.8581 99.3582 12.6219 98.6038 12.6219C98.2685 12.6219 97.9485 12.6828 97.6436 12.8048C97.3464 12.9191 97.0835 13.0905 96.8549 13.3191C96.6263 13.5477 96.4434 13.8373 96.3063 14.1879C96.1767 14.5308 96.1119 14.9308 96.1119 15.3881V22.7607H94.0773V15.3881C94.0773 14.4584 93.8906 13.7649 93.5172 13.3077C93.1438 12.8505 92.599 12.6219 91.8827 12.6219C91.3797 12.6219 90.9111 12.759 90.4767 13.0334C90.05 13.3001 89.6575 13.6659 89.2994 14.1307V22.7607H87.2647ZM113.97 22.9436C113.055 22.9436 112.35 22.6883 111.855 22.1778C111.367 21.6672 111.124 20.9319 111.124 19.9717V12.8848H109.729C109.607 12.8848 109.504 12.8505 109.42 12.7819C109.337 12.7057 109.295 12.5914 109.295 12.439V11.6274L111.192 11.3874L111.661 7.80962C111.676 7.69532 111.726 7.60388 111.809 7.53529C111.893 7.45909 112 7.42099 112.129 7.42099H113.158V11.4102H116.473V12.8848H113.158V19.8345C113.158 20.3222 113.276 20.6842 113.513 20.9204C113.749 21.1567 114.054 21.2748 114.427 21.2748C114.64 21.2748 114.823 21.2481 114.976 21.1948C115.136 21.1338 115.273 21.069 115.387 21.0004C115.501 20.9319 115.597 20.8709 115.673 20.8176C115.757 20.7566 115.829 20.7261 115.89 20.7261C115.997 20.7261 116.092 20.7909 116.176 20.9204L116.77 21.892C116.42 22.2197 115.997 22.4788 115.501 22.6693C115.006 22.8522 114.496 22.9436 113.97 22.9436ZM123.573 10.9987C124.266 10.9987 124.906 11.1169 125.493 11.3531C126.08 11.5817 126.586 11.917 127.013 12.359C127.44 12.7933 127.771 13.3344 128.008 13.9821C128.251 14.6222 128.373 15.3538 128.373 16.1768C128.373 16.4968 128.339 16.7102 128.27 16.8169C128.202 16.9236 128.072 16.9769 127.882 16.9769H120.178C120.193 17.7085 120.292 18.3448 120.475 18.8858C120.658 19.4268 120.909 19.8803 121.229 20.246C121.549 20.6042 121.93 20.8747 122.372 21.0576C122.814 21.2329 123.31 21.3205 123.858 21.3205C124.369 21.3205 124.807 21.2633 125.173 21.149C125.546 21.0271 125.866 20.8976 126.133 20.7604C126.4 20.6232 126.621 20.4975 126.796 20.3832C126.979 20.2613 127.135 20.2003 127.265 20.2003C127.432 20.2003 127.562 20.2651 127.653 20.3946L128.225 21.1376C127.973 21.4424 127.672 21.7091 127.322 21.9377C126.971 22.1587 126.594 22.3416 126.19 22.4864C125.794 22.6312 125.382 22.7379 124.956 22.8065C124.529 22.8827 124.106 22.9208 123.687 22.9208C122.887 22.9208 122.148 22.7874 121.469 22.5207C120.799 22.2464 120.216 21.8501 119.72 21.3319C119.233 20.8061 118.852 20.1584 118.577 19.3887C118.303 18.6191 118.166 17.7351 118.166 16.7369C118.166 15.9291 118.288 15.1747 118.532 14.4736C118.783 13.7725 119.141 13.1667 119.606 12.6562C120.071 12.138 120.639 11.7341 121.309 11.4445C121.98 11.1473 122.734 10.9987 123.573 10.9987ZM123.618 12.4961C122.635 12.4961 121.862 12.7819 121.298 13.3534C120.734 13.9173 120.383 14.7022 120.246 15.7081H126.544C126.544 15.2357 126.48 14.8051 126.35 14.4165C126.221 14.0202 126.03 13.6811 125.779 13.3991C125.527 13.1096 125.219 12.8886 124.853 12.7362C124.495 12.5762 124.083 12.4961 123.618 12.4961ZM130.978 22.7607V11.1816H132.189C132.479 11.1816 132.662 11.3226 132.738 11.6046L132.886 12.7933C133.313 12.2675 133.789 11.837 134.315 11.5017C134.849 11.1664 135.466 10.9987 136.167 10.9987C136.952 10.9987 137.584 11.2159 138.064 11.6503C138.552 12.0846 138.903 12.6714 139.116 13.4106C139.276 12.9915 139.486 12.6295 139.745 12.3247C140.011 12.0199 140.309 11.7684 140.636 11.5703C140.964 11.3721 141.311 11.2274 141.676 11.1359C142.05 11.0445 142.427 10.9987 142.808 10.9987C143.418 10.9987 143.959 11.0978 144.431 11.2959C144.911 11.4864 145.315 11.7684 145.643 12.1418C145.978 12.5152 146.233 12.9762 146.409 13.5249C146.584 14.0659 146.672 14.687 146.672 15.3881V22.7607H144.637V15.3881C144.637 14.4812 144.439 13.7954 144.043 13.3306C143.646 12.8581 143.071 12.6219 142.317 12.6219C141.981 12.6219 141.661 12.6828 141.356 12.8048C141.059 12.9191 140.796 13.0905 140.568 13.3191C140.339 13.5477 140.156 13.8373 140.019 14.1879C139.89 14.5308 139.825 14.9308 139.825 15.3881V22.7607H137.79V15.3881C137.79 14.4584 137.603 13.7649 137.23 13.3077C136.857 12.8505 136.312 12.6219 135.595 12.6219C135.093 12.6219 134.624 12.759 134.19 13.0334C133.763 13.3001 133.37 13.6659 133.012 14.1307V22.7607H130.978ZM155.934 11.1816V18.5657C155.934 19.4421 156.136 20.1203 156.54 20.6004C156.943 21.0805 157.553 21.3205 158.368 21.3205C158.963 21.3205 159.523 21.1795 160.049 20.8976C160.575 20.6156 161.058 20.2232 161.5 19.7202V11.1816H163.535V22.7607H162.323C162.034 22.7607 161.851 22.6198 161.775 22.3378L161.615 21.0919C161.112 21.6482 160.548 22.0978 159.923 22.4407C159.298 22.776 158.582 22.9436 157.774 22.9436C157.142 22.9436 156.581 22.8408 156.094 22.635C155.614 22.4216 155.21 22.1244 154.882 21.7434C154.554 21.3624 154.307 20.9014 154.139 20.3603C153.979 19.8193 153.899 19.2211 153.899 18.5657V11.1816H155.934ZM166.876 22.7607V11.1816H168.088C168.378 11.1816 168.561 11.3226 168.637 11.6046L168.785 12.7933C169.212 12.2675 169.688 11.837 170.214 11.5017C170.748 11.1664 171.365 10.9987 172.066 10.9987C172.851 10.9987 173.483 11.2159 173.963 11.6503C174.451 12.0846 174.802 12.6714 175.015 13.4106C175.175 12.9915 175.385 12.6295 175.644 12.3247C175.91 12.0199 176.208 11.7684 176.535 11.5703C176.863 11.3721 177.21 11.2274 177.575 11.1359C177.949 11.0445 178.326 10.9987 178.707 10.9987C179.317 10.9987 179.858 11.0978 180.33 11.2959C180.81 11.4864 181.214 11.7684 181.542 12.1418C181.877 12.5152 182.132 12.9762 182.308 13.5249C182.483 14.0659 182.571 14.687 182.571 15.3881V22.7607H180.536V15.3881C180.536 14.4812 180.338 13.7954 179.942 13.3306C179.545 12.8581 178.97 12.6219 178.216 12.6219C177.88 12.6219 177.56 12.6828 177.255 12.8048C176.958 12.9191 176.695 13.0905 176.467 13.3191C176.238 13.5477 176.055 13.8373 175.918 14.1879C175.788 14.5308 175.724 14.9308 175.724 15.3881V22.7607H173.689V15.3881C173.689 14.4584 173.502 13.7649 173.129 13.3077C172.756 12.8505 172.211 12.6219 171.494 12.6219C170.991 12.6219 170.523 12.759 170.088 13.0334C169.662 13.3001 169.269 13.6659 168.911 14.1307V22.7607H166.876ZM204.601 22.7607H202.223C201.956 22.7607 201.735 22.696 201.56 22.5664C201.392 22.4293 201.271 22.2616 201.194 22.0635L199.96 18.6915H193.113L191.878 22.0635C191.817 22.2387 191.696 22.3988 191.513 22.5436C191.337 22.6883 191.12 22.7607 190.861 22.7607H188.472L194.965 6.23221H198.108L204.601 22.7607ZM193.902 16.5197H199.171L197.159 11.0216C197.068 10.7777 196.965 10.492 196.851 10.1643C196.744 9.82902 196.637 9.46705 196.531 9.07841C196.424 9.46705 196.317 9.82902 196.211 10.1643C196.112 10.4996 196.012 10.793 195.913 11.0445L193.902 16.5197ZM206.006 26.5214V10.9073H208.2C208.421 10.9073 208.604 10.9568 208.749 11.0559C208.901 11.155 209.008 11.3036 209.069 11.5017L209.332 12.3704C209.561 12.1189 209.804 11.8903 210.063 11.6846C210.33 11.4788 210.612 11.3036 210.909 11.1588C211.214 11.0064 211.538 10.8882 211.881 10.8044C212.231 10.7206 212.613 10.6787 213.024 10.6787C213.641 10.6787 214.213 10.8159 214.739 11.0902C215.264 11.3645 215.718 11.7608 216.099 12.279C216.48 12.7971 216.777 13.4334 216.99 14.1879C217.211 14.9346 217.322 15.7843 217.322 16.7369C217.322 17.6284 217.196 18.4514 216.945 19.2059C216.701 19.9603 216.354 20.6156 215.904 21.1719C215.463 21.7282 214.929 22.1625 214.304 22.475C213.687 22.7874 213.001 22.9436 212.247 22.9436C211.629 22.9436 211.111 22.856 210.692 22.6807C210.273 22.5055 209.892 22.2692 209.549 21.972V26.5214H206.006ZM211.79 13.3877C211.53 13.3877 211.294 13.4144 211.081 13.4677C210.875 13.5135 210.681 13.582 210.498 13.6735C210.323 13.7649 210.159 13.883 210.006 14.0278C209.854 14.165 209.702 14.325 209.549 14.5079V19.5373C209.816 19.8345 210.105 20.0441 210.418 20.166C210.73 20.2803 211.058 20.3375 211.401 20.3375C211.729 20.3375 212.03 20.2727 212.304 20.1432C212.578 20.0136 212.814 19.8079 213.013 19.5259C213.218 19.2363 213.378 18.8629 213.493 18.4057C213.607 17.9485 213.664 17.3922 213.664 16.7369C213.664 16.112 213.618 15.5862 213.527 15.1594C213.436 14.7327 213.306 14.3898 213.138 14.1307C212.978 13.864 212.784 13.6735 212.555 13.5592C212.327 13.4449 212.071 13.3877 211.79 13.3877ZM224.297 10.7244C225.082 10.7244 225.799 10.8463 226.446 11.0902C227.102 11.334 227.662 11.6884 228.127 12.1532C228.599 12.6181 228.965 13.1896 229.224 13.8678C229.491 14.5384 229.624 15.3004 229.624 16.1539C229.624 16.4206 229.613 16.6378 229.59 16.8054C229.567 16.9731 229.525 17.1064 229.464 17.2055C229.403 17.3046 229.319 17.3732 229.212 17.4113C229.113 17.4494 228.984 17.4684 228.824 17.4684H221.988C222.103 18.4591 222.404 19.1792 222.891 19.6288C223.379 20.0708 224.008 20.2918 224.777 20.2918C225.189 20.2918 225.543 20.2422 225.84 20.1432C226.138 20.0441 226.401 19.9336 226.629 19.8117C226.865 19.6897 227.079 19.5792 227.269 19.4802C227.467 19.3811 227.673 19.3316 227.887 19.3316C228.168 19.3316 228.382 19.4345 228.527 19.6402L229.555 20.909C229.19 21.3281 228.793 21.671 228.367 21.9377C227.947 22.1968 227.513 22.4026 227.064 22.555C226.622 22.6998 226.176 22.7988 225.726 22.8522C225.284 22.9131 224.861 22.9436 224.457 22.9436C223.627 22.9436 222.846 22.8103 222.114 22.5436C221.39 22.2692 220.754 21.8654 220.205 21.3319C219.664 20.7985 219.234 20.1355 218.914 19.343C218.601 18.5505 218.445 17.6284 218.445 16.5768C218.445 15.7843 218.578 15.0337 218.845 14.325C219.119 13.6163 219.508 12.9953 220.011 12.4618C220.521 11.9284 221.135 11.5055 221.851 11.1931C222.575 10.8806 223.391 10.7244 224.297 10.7244ZM224.366 13.1705C223.688 13.1705 223.158 13.3649 222.777 13.7535C222.396 14.1345 222.145 14.687 222.023 15.4109H226.446C226.446 15.129 226.408 14.8546 226.332 14.5879C226.263 14.3212 226.145 14.085 225.978 13.8792C225.818 13.6659 225.604 13.4944 225.338 13.3649C225.071 13.2353 224.747 13.1705 224.366 13.1705ZM235.818 22.9436C235.254 22.9436 234.755 22.8636 234.321 22.7036C233.894 22.5359 233.532 22.3035 233.235 22.0063C232.945 21.7015 232.724 21.3357 232.572 20.909C232.419 20.4823 232.343 20.006 232.343 19.4802V13.3534H231.337C231.154 13.3534 230.998 13.2963 230.869 13.182C230.739 13.06 230.674 12.8848 230.674 12.6562V11.2731L232.56 10.9073L233.258 8.01537C233.349 7.6496 233.608 7.46671 234.035 7.46671H235.887V10.9302H238.767V13.3534H235.887V19.2401C235.887 19.5145 235.951 19.7431 236.081 19.926C236.218 20.1012 236.412 20.1889 236.664 20.1889C236.793 20.1889 236.9 20.1774 236.984 20.1546C237.075 20.1241 237.152 20.0936 237.213 20.0631C237.281 20.025 237.342 19.9946 237.395 19.9717C237.456 19.9412 237.525 19.926 237.601 19.926C237.708 19.926 237.792 19.9526 237.853 20.006C237.921 20.0517 237.99 20.1279 238.058 20.2346L239.133 21.9149C238.676 22.2578 238.161 22.5169 237.59 22.6922C237.018 22.8598 236.428 22.9436 235.818 22.9436ZM244.468 10.9073V22.7607H240.925V10.9073H244.468ZM244.88 7.66103C244.88 7.94298 244.823 8.20969 244.708 8.46116C244.594 8.70502 244.438 8.9222 244.24 9.1127C244.042 9.29559 243.809 9.44419 243.543 9.55849C243.283 9.66518 243.005 9.71852 242.708 9.71852C242.419 9.71852 242.148 9.66518 241.897 9.55849C241.645 9.44419 241.42 9.29559 241.222 9.1127C241.032 8.9222 240.879 8.70502 240.765 8.46116C240.658 8.20969 240.605 7.94298 240.605 7.66103C240.605 7.37145 240.658 7.10093 240.765 6.84946C240.879 6.59799 241.032 6.377 241.222 6.18649C241.42 5.99598 241.645 5.84739 241.897 5.7407C242.148 5.63402 242.419 5.58067 242.708 5.58067C243.005 5.58067 243.283 5.63402 243.543 5.7407C243.809 5.84739 244.042 5.99598 244.24 6.18649C244.438 6.377 244.594 6.59799 244.708 6.84946C244.823 7.10093 244.88 7.37145 244.88 7.66103ZM251.49 22.9436C250.926 22.9436 250.427 22.8636 249.993 22.7036C249.566 22.5359 249.204 22.3035 248.907 22.0063C248.617 21.7015 248.397 21.3357 248.244 20.909C248.092 20.4823 248.015 20.006 248.015 19.4802V13.3534H247.01C246.827 13.3534 246.67 13.2963 246.541 13.182C246.411 13.06 246.347 12.8848 246.347 12.6562V11.2731L248.233 10.9073L248.93 8.01537C249.021 7.6496 249.28 7.46671 249.707 7.46671H251.559V10.9302H254.439V13.3534H251.559V19.2401C251.559 19.5145 251.624 19.7431 251.753 19.926C251.89 20.1012 252.085 20.1889 252.336 20.1889C252.466 20.1889 252.572 20.1774 252.656 20.1546C252.748 20.1241 252.824 20.0936 252.885 20.0631C252.953 20.025 253.014 19.9946 253.068 19.9717C253.129 19.9412 253.197 19.926 253.274 19.926C253.38 19.926 253.464 19.9526 253.525 20.006C253.594 20.0517 253.662 20.1279 253.731 20.2346L254.805 21.9149C254.348 22.2578 253.834 22.5169 253.262 22.6922C252.691 22.8598 252.1 22.9436 251.49 22.9436ZM261.558 10.7244C262.343 10.7244 263.059 10.8463 263.707 11.0902C264.362 11.334 264.923 11.6884 265.387 12.1532C265.86 12.6181 266.226 13.1896 266.485 13.8678C266.751 14.5384 266.885 15.3004 266.885 16.1539C266.885 16.4206 266.873 16.6378 266.85 16.8054C266.828 16.9731 266.786 17.1064 266.725 17.2055C266.664 17.3046 266.58 17.3732 266.473 17.4113C266.374 17.4494 266.245 17.4684 266.085 17.4684H259.249C259.363 18.4591 259.664 19.1792 260.152 19.6288C260.64 20.0708 261.269 20.2918 262.038 20.2918C262.45 20.2918 262.804 20.2422 263.101 20.1432C263.398 20.0441 263.661 19.9336 263.89 19.8117C264.126 19.6897 264.34 19.5792 264.53 19.4802C264.728 19.3811 264.934 19.3316 265.147 19.3316C265.429 19.3316 265.643 19.4345 265.787 19.6402L266.816 20.909C266.45 21.3281 266.054 21.671 265.627 21.9377C265.208 22.1968 264.774 22.4026 264.324 22.555C263.882 22.6998 263.437 22.7988 262.987 22.8522C262.545 22.9131 262.122 22.9436 261.718 22.9436C260.888 22.9436 260.106 22.8103 259.375 22.5436C258.651 22.2692 258.015 21.8654 257.466 21.3319C256.925 20.7985 256.494 20.1355 256.174 19.343C255.862 18.5505 255.706 17.6284 255.706 16.5768C255.706 15.7843 255.839 15.0337 256.106 14.325C256.38 13.6163 256.769 12.9953 257.272 12.4618C257.782 11.9284 258.396 11.5055 259.112 11.1931C259.836 10.8806 260.651 10.7244 261.558 10.7244ZM261.627 13.1705C260.949 13.1705 260.419 13.3649 260.038 13.7535C259.657 14.1345 259.405 14.687 259.283 15.4109H263.707C263.707 15.129 263.669 14.8546 263.593 14.5879C263.524 14.3212 263.406 14.085 263.238 13.8792C263.078 13.6659 262.865 13.4944 262.598 13.3649C262.332 13.2353 262.008 13.1705 261.627 13.1705ZM281.66 22.7607C281.439 22.7607 281.252 22.7112 281.1 22.6121C280.955 22.5131 280.852 22.3645 280.791 22.1664L280.517 21.2633C280.281 21.5148 280.033 21.7434 279.774 21.9492C279.515 22.1549 279.233 22.334 278.928 22.4864C278.631 22.6312 278.307 22.7417 277.956 22.8179C277.614 22.9017 277.24 22.9436 276.836 22.9436C276.219 22.9436 275.648 22.8065 275.122 22.5321C274.596 22.2578 274.142 21.8615 273.761 21.3434C273.38 20.8252 273.079 20.1927 272.858 19.4459C272.645 18.6915 272.538 17.8342 272.538 16.874C272.538 15.9901 272.66 15.1709 272.904 14.4165C273.148 13.6544 273.491 12.9991 273.933 12.4504C274.383 11.8941 274.92 11.4598 275.545 11.1473C276.17 10.8349 276.859 10.6787 277.614 10.6787C278.223 10.6787 278.738 10.7701 279.157 10.953C279.583 11.1283 279.968 11.3607 280.311 11.6503V5.64926H283.855V22.7607H281.66ZM278.071 20.2232C278.33 20.2232 278.562 20.2003 278.768 20.1546C278.981 20.1012 279.176 20.0288 279.351 19.9374C279.526 19.846 279.69 19.7317 279.843 19.5945C280.003 19.4573 280.159 19.2973 280.311 19.1144V14.085C280.037 13.7878 279.743 13.582 279.431 13.4677C279.126 13.3458 278.802 13.2848 278.459 13.2848C278.132 13.2848 277.831 13.3496 277.556 13.4792C277.282 13.6087 277.042 13.8183 276.836 14.1078C276.638 14.3898 276.482 14.7594 276.368 15.2166C276.253 15.6738 276.196 16.2263 276.196 16.874C276.196 17.4989 276.242 18.0247 276.333 18.4514C276.425 18.8782 276.551 19.2249 276.711 19.4916C276.878 19.7507 277.076 19.9374 277.305 20.0517C277.534 20.166 277.789 20.2232 278.071 20.2232ZM291.675 10.7244C292.46 10.7244 293.176 10.8463 293.824 11.0902C294.479 11.334 295.039 11.6884 295.504 12.1532C295.977 12.6181 296.342 13.1896 296.601 13.8678C296.868 14.5384 297.001 15.3004 297.001 16.1539C297.001 16.4206 296.99 16.6378 296.967 16.8054C296.944 16.9731 296.902 17.1064 296.841 17.2055C296.781 17.3046 296.697 17.3732 296.59 17.4113C296.491 17.4494 296.361 17.4684 296.201 17.4684H289.366C289.48 18.4591 289.781 19.1792 290.269 19.6288C290.757 20.0708 291.385 20.2918 292.155 20.2918C292.566 20.2918 292.921 20.2422 293.218 20.1432C293.515 20.0441 293.778 19.9336 294.007 19.8117C294.243 19.6897 294.456 19.5792 294.647 19.4802C294.845 19.3811 295.051 19.3316 295.264 19.3316C295.546 19.3316 295.759 19.4345 295.904 19.6402L296.933 20.909C296.567 21.3281 296.171 21.671 295.744 21.9377C295.325 22.1968 294.891 22.4026 294.441 22.555C293.999 22.6998 293.553 22.7988 293.104 22.8522C292.662 22.9131 292.239 22.9436 291.835 22.9436C291.004 22.9436 290.223 22.8103 289.492 22.5436C288.768 22.2692 288.131 21.8654 287.583 21.3319C287.042 20.7985 286.611 20.1355 286.291 19.343C285.979 18.5505 285.822 17.6284 285.822 16.5768C285.822 15.7843 285.956 15.0337 286.223 14.325C286.497 13.6163 286.885 12.9953 287.388 12.4618C287.899 11.9284 288.512 11.5055 289.229 11.1931C289.953 10.8806 290.768 10.7244 291.675 10.7244ZM291.743 13.1705C291.065 13.1705 290.536 13.3649 290.155 13.7535C289.774 14.1345 289.522 14.687 289.4 15.4109H293.824C293.824 15.129 293.786 14.8546 293.71 14.5879C293.641 14.3212 293.523 14.085 293.355 13.8792C293.195 13.6659 292.982 13.4944 292.715 13.3649C292.448 13.2353 292.124 13.1705 291.743 13.1705ZM306.77 10.9073V18.4286C306.77 19.0153 306.903 19.4688 307.17 19.7888C307.437 20.1089 307.829 20.2689 308.348 20.2689C308.736 20.2689 309.098 20.1889 309.433 20.0288C309.776 19.8688 310.108 19.644 310.428 19.3544V10.9073H313.971V22.7607H311.777C311.335 22.7607 311.045 22.5626 310.908 22.1664L310.691 21.4805C310.462 21.7015 310.226 21.9035 309.982 22.0863C309.738 22.2616 309.475 22.414 309.193 22.5436C308.919 22.6655 308.622 22.7607 308.302 22.8293C307.982 22.9055 307.631 22.9436 307.25 22.9436C306.602 22.9436 306.027 22.8331 305.524 22.6121C305.029 22.3835 304.61 22.0673 304.267 21.6634C303.924 21.2595 303.665 20.7833 303.49 20.2346C303.314 19.6859 303.227 19.0839 303.227 18.4286V10.9073H306.77ZM316.716 22.7607V10.9073H318.911C319.132 10.9073 319.315 10.9568 319.46 11.0559C319.612 11.155 319.719 11.3036 319.78 11.5017L319.974 12.1418C320.172 11.936 320.378 11.7493 320.591 11.5817C320.805 11.4064 321.033 11.2578 321.277 11.1359C321.529 11.0064 321.795 10.9073 322.077 10.8387C322.367 10.7625 322.683 10.7244 323.026 10.7244C323.742 10.7244 324.333 10.9111 324.798 11.2845C325.27 11.6503 325.628 12.1418 325.872 12.759C326.07 12.3933 326.31 12.0808 326.592 11.8217C326.882 11.5626 327.191 11.3531 327.518 11.1931C327.854 11.033 328.204 10.9149 328.57 10.8387C328.943 10.7625 329.313 10.7244 329.679 10.7244C330.357 10.7244 330.959 10.8273 331.485 11.033C332.011 11.2312 332.449 11.5245 332.799 11.9132C333.157 12.2942 333.428 12.7667 333.611 13.3306C333.794 13.8869 333.885 14.5193 333.885 15.228V22.7607H330.342V15.228C330.342 14.0012 329.816 13.3877 328.764 13.3877C328.284 13.3877 327.884 13.5477 327.564 13.8678C327.252 14.1802 327.095 14.6336 327.095 15.228V22.7607H323.552V15.228C323.552 14.5498 323.419 14.0735 323.152 13.7992C322.885 13.5249 322.493 13.3877 321.975 13.3877C321.654 13.3877 321.35 13.4601 321.06 13.6049C320.778 13.7497 320.511 13.944 320.26 14.1879V22.7607H316.716ZM344.691 16.5997V22.7607H340.828V6.10648H346.246C347.45 6.10648 348.475 6.23221 349.321 6.48369C350.174 6.72754 350.868 7.07045 351.401 7.51243C351.942 7.95441 352.334 8.47641 352.578 9.07841C352.822 9.68042 352.944 10.3358 352.944 11.0445C352.944 11.5855 352.872 12.0961 352.727 12.5762C352.582 13.0562 352.365 13.502 352.075 13.9135C351.793 14.3174 351.443 14.6794 351.024 14.9994C350.612 15.3195 350.136 15.5824 349.595 15.7881C349.854 15.9177 350.094 16.0777 350.315 16.2682C350.544 16.4587 350.742 16.6911 350.909 16.9655L354.453 22.7607H350.955C350.307 22.7607 349.843 22.5169 349.561 22.0292L346.794 17.1941C346.673 16.9807 346.528 16.8283 346.36 16.7369C346.2 16.6454 345.971 16.5997 345.674 16.5997H344.691ZM344.691 13.9364H346.246C346.772 13.9364 347.217 13.8716 347.583 13.7421C347.957 13.6049 348.261 13.4182 348.498 13.182C348.734 12.9457 348.905 12.6714 349.012 12.359C349.119 12.0389 349.172 11.696 349.172 11.3302C349.172 10.5987 348.932 10.0271 348.452 9.61565C347.979 9.20415 347.244 8.9984 346.246 8.9984H344.691V13.9364ZM366.753 6.10648V9.07841H359.918V12.9648H365.153V15.8224H359.918V19.7888H366.753V22.7607H356.031V6.10648H366.753ZM373.187 22.7607H369.3V6.10648H373.187V22.7607ZM380.898 6.10648V12.6447C380.898 13.3458 380.856 14.0431 380.772 14.7365C380.689 15.4223 380.578 16.1234 380.441 16.8397H378.04C377.903 16.1234 377.793 15.4223 377.709 14.7365C377.625 14.0431 377.583 13.3458 377.583 12.6447V6.10648H380.898ZM377.195 20.9662C377.195 20.6918 377.244 20.4365 377.343 20.2003C377.45 19.9641 377.591 19.7583 377.766 19.5831C377.949 19.4078 378.162 19.2706 378.406 19.1716C378.65 19.0649 378.917 19.0115 379.206 19.0115C379.488 19.0115 379.751 19.0649 379.995 19.1716C380.239 19.2706 380.452 19.4078 380.635 19.5831C380.818 19.7583 380.959 19.9641 381.058 20.2003C381.165 20.4365 381.218 20.6918 381.218 20.9662C381.218 21.2405 381.165 21.4996 381.058 21.7434C380.959 21.9797 380.818 22.1854 380.635 22.3607C380.452 22.5359 380.239 22.6731 379.995 22.7722C379.751 22.8712 379.488 22.9208 379.206 22.9208C378.917 22.9208 378.65 22.8712 378.406 22.7722C378.162 22.6731 377.949 22.5359 377.766 22.3607C377.591 22.1854 377.45 21.9797 377.343 21.7434C377.244 21.4996 377.195 21.2405 377.195 20.9662Z" fill="#1D0605" fill-opacity="0.69"/>
</svg>

