<svg width="60" height="61" viewBox="0 0 60 61" fill="none" xmlns="http://www.w3.org/2000/svg">
<circle cx="30" cy="30.498" r="30" fill="#FAE2CB"/>
<g clip-path="url(#clip0_1050_1144)">
<path d="M28 14.998H31.9966C32.1851 15.0216 32.3728 15.0468 32.5613 15.0679C35.3773 15.3831 37.9123 16.3929 40.1173 18.1833C42.8927 20.4409 44.6217 23.3321 45.2676 26.8578C45.3675 27.4013 45.426 27.9521 45.504 28.4996V29.6499C45.2457 30.2998 44.7582 30.507 44.0749 30.5062C34.6908 30.4932 25.307 30.4902 15.9234 30.4972C15.8227 30.4972 15.7211 30.4972 15.6204 30.4972C14.9639 30.4745 14.5016 30.0098 14.5056 29.3534C14.5049 28.8792 14.5283 28.4053 14.5755 27.9334C14.8818 25.1283 15.8893 22.6018 17.6694 20.406C19.9281 17.6187 22.827 15.8827 26.3629 15.2344C26.9032 15.1345 27.4516 15.076 28 14.998ZM25.5699 23.3037C25.5699 23.1022 25.5813 22.8975 25.5699 22.7001C25.5285 22.1079 25.0873 21.6725 24.5218 21.6513C23.9239 21.6294 23.4388 22.0145 23.3844 22.6213C23.3417 23.072 23.3417 23.5257 23.3844 23.9763C23.4076 24.2558 23.54 24.5148 23.753 24.6973C23.9659 24.8797 24.2421 24.971 24.5218 24.9512C25.1084 24.9195 25.5431 24.48 25.5781 23.8748C25.5829 23.6863 25.5699 23.4946 25.5699 23.3037ZM34.4259 23.3037C34.4259 23.5149 34.4097 23.7278 34.4259 23.9374C34.4465 24.2115 34.5691 24.4679 34.7697 24.6559C34.9702 24.844 35.234 24.9499 35.5089 24.9528C35.7795 24.9649 36.0444 24.8725 36.2488 24.6949C36.4533 24.5173 36.5816 24.2679 36.6074 23.9983C36.6515 23.539 36.6515 23.0765 36.6074 22.6173C36.5497 22.012 36.0614 21.6278 35.4634 21.6513C34.8947 21.6741 34.4592 22.1111 34.4186 22.7074C34.417 22.904 34.4284 23.1063 34.4284 23.307L34.4259 23.3037ZM31.0875 23.3191C31.0875 23.0754 31.1061 22.8317 31.0875 22.5953C31.0562 22.3332 30.9296 22.0917 30.7319 21.9167C30.5342 21.7418 30.279 21.6456 30.015 21.6465C29.4503 21.6416 28.9531 22.0527 28.9165 22.5978C28.8873 23.0598 28.8873 23.5232 28.9165 23.9853C28.9498 24.5328 29.4454 24.9536 30.0036 24.9528C30.2729 24.9547 30.5332 24.8565 30.7341 24.6773C30.935 24.498 31.0621 24.2505 31.0907 23.9828C31.1078 23.7659 31.0899 23.5434 31.0899 23.32L31.0875 23.3191Z" fill="#60340B"/>
<path d="M45.5001 38.0053V41.0297C45.4051 41.4188 45.3376 41.8185 45.2093 42.1955C44.3968 44.5473 42.3526 45.9925 39.8364 45.9941C33.2775 45.9941 26.7181 45.9941 20.1582 45.9941C20.0071 45.9941 19.8551 45.9941 19.704 45.9827C17.2219 45.8536 15.0193 43.9705 14.6277 41.5196C14.4652 40.5033 14.5212 39.4505 14.5009 38.4131C14.4847 37.5706 14.9194 37.1442 15.7603 37.1442C20.8155 37.1442 25.8713 37.1428 30.9276 37.1401C31.2925 37.1348 31.6481 37.255 31.935 37.4805C32.9969 38.2839 34.0637 39.08 35.1297 39.8786C35.2646 39.9793 35.4019 40.0776 35.5359 40.1783C36.7473 39.2701 37.9441 38.3773 39.1344 37.4772C39.4217 37.2517 39.7783 37.1326 40.1435 37.1401C41.4654 37.149 42.7873 37.1628 44.1092 37.1352C44.7925 37.123 45.2613 37.3578 45.5001 38.0053Z" fill="#60340B"/>
<path d="M45.5001 34.0702C45.2499 34.7274 44.7616 34.9321 44.0775 34.9313C34.6527 34.9188 25.228 34.9161 15.8033 34.9232C15.1013 34.9232 14.6845 34.6445 14.5375 34.0824C14.4995 33.9331 14.4937 33.7775 14.5203 33.6258C14.5469 33.4741 14.6053 33.3297 14.6917 33.2022C14.7782 33.0747 14.8906 32.967 15.0217 32.8861C15.1528 32.8053 15.2996 32.7531 15.4523 32.733C15.5929 32.7185 15.7343 32.7126 15.8756 32.7152C25.2917 32.7152 34.7072 32.7124 44.1221 32.707C44.8014 32.707 45.2694 32.9353 45.5033 33.5852L45.5001 34.0702Z" fill="#60340B"/>
</g>
<defs>
<clipPath id="clip0_1050_1144">
<rect width="31" height="31" fill="white" transform="translate(14.5 14.998)"/>
</clipPath>
</defs>
</svg>
