<svg width="61" height="61" viewBox="0 0 61 61" fill="none" xmlns="http://www.w3.org/2000/svg">
<circle cx="30.062" cy="30.498" r="30" fill="#FAE2CB"/>
<g clip-path="url(#clip0_1050_1161)">
<path d="M41.2223 37.3808C42.4013 37.3489 43.4057 37.7092 44.2463 38.4969C45.0097 39.2113 45.427 40.1059 45.5551 41.147C45.5975 41.4917 45.4466 41.6994 45.1454 41.8106C45.3999 43.9729 44.4965 45.4837 42.7237 45.9146C41.3164 46.2594 39.3137 45.5837 38.7641 43.2964C38.7463 43.2964 38.72 43.2904 38.7115 43.2964C38.2136 43.8557 37.8547 43.7919 37.5867 43.0921C37.5214 42.9198 37.4713 42.7474 37.4306 42.6233C37.1125 42.6578 36.8089 42.719 36.5043 42.7198C33.8787 42.7273 31.2531 42.7273 28.6275 42.7198C28.3731 42.7198 28.2509 42.7448 28.2034 43.0646C27.9659 44.6434 26.5705 45.8035 24.9801 45.7888C24.2111 45.7853 23.4686 45.5036 22.8855 44.9943C22.3025 44.4849 21.917 43.7813 21.7983 43.0094C21.7856 42.9232 21.7661 42.8422 21.7525 42.7715C21.498 42.7216 21.252 42.7009 21.0247 42.6242C20.067 42.3027 19.5292 41.3659 19.6115 40.2179C19.6702 39.4341 19.8634 38.6667 20.1824 37.9505C20.4971 37.236 20.861 36.5448 21.2215 35.851C21.2502 35.7997 21.2897 35.7555 21.3372 35.7215C21.3847 35.6875 21.4391 35.6647 21.4963 35.6546C23.9944 35.6451 26.4933 35.6477 28.9914 35.6494C29.0121 35.6527 29.0322 35.6594 29.0508 35.6692C28.8871 37.2145 29.1178 38.0823 29.8465 38.5736C29.8753 38.1332 29.905 37.7117 29.9313 37.286C30.0331 35.548 30.1349 33.8094 30.2367 32.0702C30.2672 31.5531 30.1179 31.3721 29.6056 31.3161C28.8379 31.2299 28.0702 31.1489 27.3034 31.0576C27.0919 31.0365 26.8871 30.9701 26.7026 30.8629C26.5181 30.7556 26.358 30.6099 26.2329 30.4352C26.1078 30.2606 26.0206 30.061 25.9769 29.8497C25.9331 29.6383 25.934 29.4199 25.9793 29.2089C26.4515 26.8739 26.9302 24.5401 27.4154 22.2074C27.63 21.1732 28.4884 20.5588 29.4876 20.6803C30.3885 20.7889 31.062 21.6102 31.084 22.5987C31.0944 22.7523 31.154 22.8982 31.2537 23.0141C32.1384 24.0138 33.3022 24.543 34.5127 24.9963C35.0862 25.2183 35.6975 25.3223 36.3109 25.3023C37.1354 25.2721 37.9616 25.2919 38.7878 25.2962C39.8218 25.3023 40.4275 25.915 40.4334 26.9578C40.4334 27.2802 40.4411 27.6033 40.4283 27.9257C40.4165 28.3118 40.2598 28.6787 39.9902 28.9511C39.7207 29.2235 39.3588 29.3808 38.9787 29.3908C38.6394 29.402 38.306 29.3908 37.9252 29.3908C38.1678 31.2135 38.5537 32.8976 40.0899 34.0584C41.0755 34.8039 41.4589 35.8252 41.2672 37.0636C41.2503 37.1576 41.2393 37.2524 41.2223 37.3808ZM34.8443 27.8283C33.2056 27.6394 31.6508 26.9913 30.3537 25.9564C30.229 26.5019 30.1086 26.9992 30.0017 27.4991C29.9169 27.9127 30.0119 28.0894 30.4055 28.2411C31.127 28.518 31.8492 28.793 32.5719 29.0659C33.4854 29.4106 33.8375 29.9329 33.7408 30.911C33.5312 33.0389 33.2988 35.1642 33.0774 37.2886C33.0147 37.8919 32.9553 38.4951 32.8942 39.1131H34.8452L34.8443 27.8283ZM41.9696 44.939C43.5991 44.9459 44.6984 43.2421 44.0351 41.7442C44.0019 41.6483 43.9417 41.5645 43.8619 41.5032C43.782 41.4418 43.6862 41.4058 43.5863 41.3995C42.3301 41.2702 41.1459 41.4857 40.0458 42.1346C39.9466 42.1852 39.8642 42.2643 39.8089 42.3621C39.7535 42.4598 39.7276 42.5719 39.7345 42.6845C39.7442 43.282 39.9832 43.8521 40.4005 44.2732C40.8179 44.6944 41.3806 44.9333 41.9687 44.939H41.9696ZM22.8238 42.744C22.8128 43.848 23.9113 44.8124 25.1082 44.7606C26.2245 44.7141 27.2661 43.7092 27.1821 42.744H22.8238Z" fill="#60340B"/>
<path d="M19.6498 22.2243C20.7927 22.2243 21.9355 22.2243 23.0784 22.2243C24.0963 22.2243 24.7265 22.8647 24.7274 23.8911C24.7274 25.7079 24.7274 27.5246 24.7274 29.3413C24.7274 30.3514 24.0929 30.9978 23.103 30.9986C20.7958 30.9986 18.4885 30.9986 16.1813 30.9986C15.2101 30.9986 14.5696 30.3479 14.5646 29.3663C14.5612 27.5278 14.5612 25.6892 14.5646 23.8506C14.5646 22.8854 15.2101 22.2295 16.1576 22.2252C17.3214 22.22 18.4852 22.2243 19.6498 22.2243Z" fill="#60340B"/>
<path d="M29.2809 34.6132H27.8083C25.6394 34.6132 23.4696 34.6132 21.3006 34.6184C21.2075 34.6262 21.1141 34.6093 21.0293 34.5694C20.9446 34.5295 20.8715 34.468 20.8171 34.3909C20.4198 33.8823 20.1896 33.2598 20.1589 32.6112C20.1377 32.1682 20.3226 31.9648 20.7526 31.9648C23.398 31.9648 26.0437 31.9648 28.6897 31.9648C29.0519 31.9648 29.2665 32.126 29.2758 32.4552C29.2945 33.1585 29.2809 33.866 29.2809 34.6132Z" fill="#60340B"/>
<path d="M28.2866 17.5652C28.2918 16.8801 28.5644 16.2251 29.0445 15.744C29.5247 15.263 30.1732 14.9952 30.8475 14.9996C31.1817 15.0024 31.512 15.0721 31.8197 15.2046C32.1274 15.3371 32.4064 15.53 32.6407 15.772C32.875 16.0141 33.0601 16.3007 33.1855 16.6155C33.3108 16.9303 33.3738 17.2671 33.371 17.6066C33.3623 18.2865 33.0904 18.9355 32.6141 19.4131C32.1378 19.8908 31.4955 20.1585 30.8263 20.1585C30.4919 20.1578 30.1609 20.0902 29.8522 19.9594C29.5436 19.8287 29.2633 19.6375 29.0275 19.3966C28.7916 19.1558 28.6048 18.8701 28.4777 18.5558C28.3505 18.2416 28.2856 17.905 28.2866 17.5652Z" fill="#60340B"/>
</g>
<defs>
<clipPath id="clip0_1050_1161">
<rect width="31" height="31" fill="white" transform="translate(14.562 14.998)"/>
</clipPath>
</defs>
</svg>
