<svg width="61" height="61" viewBox="0 0 61 61" fill="none" xmlns="http://www.w3.org/2000/svg">
<circle cx="30.062" cy="30.498" r="30" fill="#FAE2CB"/>
<g clip-path="url(#clip0_1050_1171)">
<path d="M30.9241 14.9979C31.5823 15.0972 32.2534 15.1443 32.8972 15.3012C38.5928 16.7073 42.1122 20.2755 43.4743 25.9559C43.5688 26.3895 43.6349 26.8288 43.6721 27.2709C43.7178 27.7017 43.7277 28.1355 43.7573 28.6413C43.6257 28.5449 43.4876 28.4575 43.3441 28.3797C42.9393 28.1992 42.5345 28.0157 42.1183 27.8685C41.9394 27.8056 41.8634 27.7404 41.8451 27.5455C41.6657 25.4854 40.9363 23.5107 39.7327 21.8264C38.3778 19.8941 36.4678 18.4157 34.254 17.5855C32.5467 16.9293 30.7075 16.687 28.8878 16.8787C26.5855 17.098 24.4019 17.9995 22.6184 19.4671C20.7038 21.0036 19.3246 23.1032 18.6775 25.4667C18.4842 26.1493 18.418 26.872 18.2834 27.5743C18.2659 27.666 18.2073 27.7919 18.1312 27.8238C17.562 28.0688 16.9844 28.294 16.3574 28.5465C16.4335 27.8215 16.4571 27.0563 16.6017 26.3138C17.5277 21.5466 20.223 18.146 24.6463 16.1211C26.0049 15.5092 27.4627 15.1455 28.9502 15.0472C29.0397 15.0352 29.1283 15.018 29.2158 14.9956L30.9241 14.9979Z" fill="#60340B"/>
<path d="M32.64 42.3556C33.6825 42.3556 34.7166 42.3943 35.7461 42.345C36.8716 42.2912 37.8463 41.4759 38.0906 40.5249C37.634 40.5037 37.1501 40.5545 36.7049 40.449C35.4509 40.1457 34.6504 39.1264 34.6375 37.8311C34.6154 35.3686 34.6025 32.9061 34.6375 30.4443C34.6702 28.27 36.9203 27.0316 38.7884 28.1343C39.6574 28.647 40.082 29.4592 40.0896 30.4542C40.1033 33.5636 40.12 36.673 40.0835 39.7824C40.0553 42.1774 38.0731 44.1227 35.67 44.1811C34.7387 44.2038 33.8073 44.1917 32.8759 44.1811C32.6971 44.1811 32.6141 44.2387 32.5388 44.3987C31.9856 45.5879 30.7445 46.2075 29.4859 45.9352C28.2722 45.6728 27.3857 44.5952 27.3416 43.3294C27.299 42.0879 28.1839 40.9503 29.4425 40.6295C30.6319 40.3262 31.9536 40.9443 32.5 42.0576C32.5487 42.1585 32.5936 42.257 32.64 42.3556Z" fill="#60340B"/>
<path d="M25.5162 34.1634C25.5162 35.3541 25.5223 36.5447 25.5162 37.7346C25.5086 38.9723 24.7811 40.028 23.7112 40.3776C21.8735 40.9768 20.0907 39.7664 20.0587 37.8393C20.0201 35.3685 20.0201 32.8969 20.0587 30.4245C20.0967 28.2646 22.3332 27.0375 24.1967 28.1273C25.1007 28.6582 25.5055 29.5 25.5131 30.5314C25.523 31.7426 25.5162 32.953 25.5162 34.1634Z" fill="#60340B"/>
<path d="M18.2583 29.7207V38.5605C17.5369 38.3178 16.9906 37.8613 16.6923 37.1711C16.5263 36.7834 16.4337 36.3684 16.4191 35.9471C16.3841 34.7382 16.4001 33.5271 16.4085 32.3174C16.4138 31.0858 17.1702 30.0241 18.2583 29.7207Z" fill="#60340B"/>
<path d="M41.8923 38.5454V29.7056C42.4479 29.8833 42.9275 30.2417 43.2544 30.7233C43.578 31.1799 43.7487 31.7267 43.7422 32.2856C43.7422 33.5157 43.7521 34.7458 43.7422 35.9759C43.7292 37.1916 42.9721 38.2329 41.8923 38.5454Z" fill="#60340B"/>
</g>
<defs>
<clipPath id="clip0_1050_1171">
<rect width="27.3953" height="31" fill="white" transform="translate(16.3643 14.998)"/>
</clipPath>
</defs>
</svg>
