<svg width="463" height="57" viewBox="0 0 463 57" fill="none" xmlns="http://www.w3.org/2000/svg">
<path d="M15.7616 54.949C15.7616 55.7255 13.3286 56.1138 8.46244 56.1138L4.11398 55.8808C1.52561 55.6738 0.231429 55.3114 0.231429 54.7937V2.68987C0.231429 1.80983 2.8198 1.3698 7.99653 1.3698C13.1733 1.3698 15.7616 1.80983 15.7616 2.68987V22.5685L25.2351 2.68987C25.5974 1.96513 27.6681 1.60276 31.4471 1.60276C38.3322 1.60276 41.9559 2.19808 42.3183 3.38873C42.3183 3.49226 42.2924 3.5958 42.2406 3.69934L28.7294 28.0818L44.4149 49.7464C44.4149 49.8499 43.9231 50.29 42.9395 51.0665C40.5582 53.1372 37.7628 54.7678 34.5532 55.9585C33.5696 56.3209 32.586 56.502 31.6024 56.502L29.7388 56.3467C28.0823 55.9326 26.7881 54.8714 25.8563 53.163L17.0041 36.2351H15.7616V54.949ZM53.5091 42.6802V15.0364H47.9959C47.1159 15.0364 46.4947 13.9234 46.1323 11.6974C45.977 10.6103 45.8993 9.49728 45.8993 8.3584C45.8993 7.21952 45.977 6.10652 46.1323 5.0194C46.4947 2.79341 47.1159 1.68041 47.9959 1.68041H74.0867C74.9667 1.68041 75.562 2.79341 75.8726 5.0194C76.0797 6.10652 76.1832 7.21952 76.1832 8.3584C76.1832 9.49728 76.0797 10.6103 75.8726 11.6974C75.562 13.9234 74.9667 15.0364 74.0867 15.0364H68.884V42.6802H74.3196C75.1997 42.6802 75.8209 43.7932 76.1832 46.0191C76.3903 47.1063 76.4938 48.2193 76.4938 49.3581C76.4938 50.497 76.3903 51.61 76.1832 52.6971C75.8209 54.9231 75.1997 56.0361 74.3196 56.0361H48.1512C47.2712 56.0361 46.6758 54.9231 46.3652 52.6971C46.1582 51.61 46.0546 50.497 46.0546 49.3581C46.0546 48.2193 46.1582 47.1063 46.3652 46.0191C46.6758 43.7932 47.2712 42.6802 48.1512 42.6802H53.5091ZM124.227 54.3278C124.227 55.4149 121.794 55.9585 116.928 55.9585C112.061 55.9585 109.421 55.5702 109.007 54.7937L96.0395 30.5666V54.7161C96.0395 55.6479 93.6323 56.1138 88.8179 56.1138C84.0553 56.1138 81.674 55.6479 81.674 54.7161V2.76752C81.674 1.99101 83.7188 1.60276 87.8084 1.60276C89.4132 1.60276 91.2769 1.75806 93.3993 2.06866C95.5736 2.3275 96.8936 2.84517 97.3595 3.62169L109.784 27.5382V3.15578C109.784 2.1722 112.191 1.68041 117.005 1.68041C121.82 1.68041 124.227 2.1722 124.227 3.15578V54.3278ZM160.757 39.8071L160.912 29.2465C160.912 28.5218 161.663 28.0559 163.164 27.8488C164.665 27.59 165.908 27.4606 166.891 27.4606L169.92 27.6935C171.887 28.0041 172.87 28.5477 172.87 29.3242L172.56 53.629C171.524 54.3537 169.428 55.0784 166.27 55.8032C163.164 56.4762 159.592 56.8126 155.554 56.8126C148.048 56.8126 141.991 54.3796 137.384 49.5134C132.776 44.6473 130.473 37.5034 130.473 28.0818C130.473 20.0578 132.725 13.5351 137.228 8.5137C141.732 3.49226 147.97 0.981548 155.942 0.981548C159.566 0.981548 162.827 1.34392 165.726 2.06866C168.677 2.74164 170.696 3.67345 171.783 4.8641C171.835 5.27824 171.861 6.05475 171.861 7.19363C171.861 8.33251 171.473 9.96318 170.696 12.0856C169.92 14.1563 169.04 15.7094 168.056 16.7447C167.072 17.7801 166.348 18.2977 165.882 18.2977C165.468 18.2977 165.002 18.1165 164.484 17.7542C164.018 17.34 163.06 16.9259 161.611 16.5118C160.161 16.0459 158.764 15.8129 157.418 15.8129C154.208 15.8129 151.594 16.8482 149.575 18.9189C147.608 20.9896 146.624 24.1992 146.624 28.5477C146.624 32.8961 147.634 36.2092 149.653 38.487C151.723 40.713 154.079 41.826 156.719 41.826C159.411 41.826 160.757 41.153 160.757 39.8071Z" fill="#3B200B"/>
<path d="M233.016 15.7352C233.016 21.119 230.687 25.2087 226.028 28.0041C228.564 28.9359 230.687 30.5407 232.395 32.8185C234.104 35.0962 234.958 38.3317 234.958 42.5249C234.958 46.6662 233.405 49.9535 230.299 52.3865C227.244 54.8196 222.844 56.0361 217.098 56.0361H198.772C197.892 56.0361 197.168 55.7514 196.598 55.182C196.029 54.5608 195.744 53.7584 195.744 52.7748V3.07813C195.744 2.50869 195.822 2.14631 195.977 1.99101C196.184 1.78394 196.572 1.68041 197.142 1.68041H214.846C226.96 1.68041 233.016 6.36535 233.016 15.7352ZM210.653 14.2599V24.4322H211.041C216.011 24.4322 218.496 22.7756 218.496 19.4625C218.496 17.6506 218.004 16.3306 217.02 15.5023C216.089 14.674 214.51 14.2599 212.284 14.2599H210.653ZM210.653 33.595V43.6896H212.051C214.277 43.6896 215.907 43.2755 216.943 42.4472C217.978 41.6189 218.496 40.2989 218.496 38.487C218.496 36.6751 218.004 35.4068 217.02 34.6821C216.089 33.9574 214.51 33.595 212.284 33.595H210.653ZM266.387 3.23343C266.387 2.19808 269.182 1.68041 274.773 1.68041C280.416 1.68041 283.237 2.19808 283.237 3.23343V38.8753C283.237 44.1555 281.348 48.4781 277.569 51.843C273.79 55.1561 268.561 56.8126 261.883 56.8126C255.257 56.8126 249.847 55.1043 245.654 51.6877C241.513 48.2193 239.442 43.5602 239.442 37.7105V3.31108C239.442 2.27573 242.238 1.75806 247.828 1.75806C253.471 1.75806 256.292 2.27573 256.292 3.31108V38.3317C256.292 39.367 256.836 40.1953 257.923 40.8165C259.062 41.4377 260.253 41.7483 261.495 41.7483C262.737 41.7483 263.85 41.4636 264.834 40.8942C265.869 40.3247 266.387 39.4706 266.387 38.3317V3.23343ZM304.586 54.949C304.586 55.7773 302.127 56.1914 297.209 56.1914C292.239 56.1914 289.755 55.8032 289.755 55.0267V4.3982C289.755 2.58634 290.712 1.68041 292.628 1.68041H307.459C321.074 1.68041 327.881 6.98656 327.881 17.5989C327.881 20.8084 327.26 23.7333 326.018 26.3734C324.775 28.9618 323.015 31.0325 320.737 32.5855L330.521 48.8922C330.107 50.1347 328.761 51.5583 326.483 53.163C323.377 55.389 320.815 56.502 318.796 56.502C316.777 56.502 315.276 55.7773 314.292 54.3278L306.993 37.3222H304.586V54.949ZM304.586 15.4246V27.0723H304.974C309.892 27.0723 312.351 25.0275 312.351 20.9379C312.351 19.0742 311.859 17.7024 310.876 16.8224C309.944 15.8905 308.391 15.4246 306.217 15.4246H304.586ZM364.287 39.8071L364.443 29.2465C364.443 28.5218 365.193 28.0559 366.695 27.8488C368.196 27.59 369.438 27.4606 370.422 27.4606L373.45 27.6935C375.417 28.0041 376.401 28.5477 376.401 29.3242L376.09 53.629C375.055 54.3537 372.958 55.0784 369.801 55.8032C366.695 56.4762 363.123 56.8126 359.085 56.8126C351.578 56.8126 345.522 54.3796 340.914 49.5134C336.307 44.6473 334.003 37.5034 334.003 28.0818C334.003 20.0578 336.255 13.5351 340.759 8.5137C345.263 3.49226 351.501 0.981548 359.473 0.981548C363.097 0.981548 366.358 1.34392 369.257 2.06866C372.208 2.74164 374.227 3.67345 375.314 4.8641C375.366 5.27824 375.391 6.05475 375.391 7.19363C375.391 8.33251 375.003 9.96318 374.227 12.0856C373.45 14.1563 372.57 15.7094 371.587 16.7447C370.603 17.7801 369.878 18.2977 369.412 18.2977C368.998 18.2977 368.532 18.1165 368.015 17.7542C367.549 17.34 366.591 16.9259 365.142 16.5118C363.692 16.0459 362.294 15.8129 360.948 15.8129C357.739 15.8129 355.125 16.8482 353.106 18.9189C351.138 20.9896 350.155 24.1992 350.155 28.5477C350.155 32.8961 351.164 36.2092 353.183 38.487C355.254 40.713 357.609 41.826 360.25 41.826C362.941 41.826 364.287 41.153 364.287 39.8071ZM409.022 23.2674C410.005 23.2674 410.497 25.0793 410.497 28.703C410.497 29.7901 410.368 31.0843 410.109 32.5855C409.902 34.035 409.488 34.7597 408.866 34.7597H399.005V42.5249H413.292C414.172 42.5249 414.768 43.6637 415.078 45.9415C415.234 46.9251 415.311 47.9863 415.311 49.1252C415.311 50.2123 415.156 51.6359 414.845 53.396C414.535 55.1561 414.017 56.0361 413.292 56.0361H386.736C384.769 56.0361 383.785 55.2337 383.785 53.629V3.69934C383.785 2.35338 384.38 1.68041 385.571 1.68041H413.37C414.457 1.68041 415.001 3.98406 415.001 8.59135C415.001 13.1469 414.457 15.4246 413.37 15.4246H399.005V23.2674H409.022ZM436.911 54.949C436.911 55.7773 434.452 56.1914 429.534 56.1914C424.565 56.1914 422.08 55.8032 422.08 55.0267V4.3982C422.08 2.58634 423.037 1.68041 424.953 1.68041H439.784C453.399 1.68041 460.206 6.98656 460.206 17.5989C460.206 20.8084 459.585 23.7333 458.343 26.3734C457.1 28.9618 455.34 31.0325 453.063 32.5855L462.847 48.8922C462.432 50.1347 461.086 51.5583 458.809 53.163C455.703 55.389 453.14 56.502 451.121 56.502C449.102 56.502 447.601 55.7773 446.617 54.3278L439.318 37.3222H436.911V54.949ZM436.911 15.4246V27.0723H437.299C442.217 27.0723 444.676 25.0275 444.676 20.9379C444.676 19.0742 444.184 17.7024 443.201 16.8224C442.269 15.8905 440.716 15.4246 438.542 15.4246H436.911Z" fill="#F59A1B"/>
</svg>
