<svg width="231" height="22" viewBox="0 0 231 22" fill="none" xmlns="http://www.w3.org/2000/svg">
<path d="M7.67029 15.2344C8.26468 15.2344 8.79429 15.1354 9.25914 14.9372C9.7316 14.7391 10.1279 14.461 10.4479 14.1028C10.7756 13.7446 11.0232 13.3103 11.1909 12.7997C11.3662 12.2892 11.4538 11.7176 11.4538 11.0851V1.18631H14.5286V11.0851C14.5286 12.0682 14.3686 12.9788 14.0485 13.817C13.7361 14.6477 13.2827 15.3678 12.6883 15.9774C12.0939 16.5794 11.3738 17.0519 10.5279 17.3948C9.68207 17.7301 8.72952 17.8977 7.67029 17.8977C6.61107 17.8977 5.65852 17.7301 4.81266 17.3948C3.96681 17.0519 3.24668 16.5794 2.6523 15.9774C2.06553 15.3678 1.61212 14.6477 1.29206 13.817C0.979631 12.9788 0.823414 12.0682 0.823414 11.0851V1.18631H3.89822V11.0737C3.89822 11.7062 3.98205 12.2777 4.14969 12.7883C4.32496 13.2989 4.57262 13.737 4.89268 14.1028C5.21273 14.461 5.60518 14.7391 6.07002 14.9372C6.54248 15.1354 7.07591 15.2344 7.67029 15.2344ZM17.49 17.7148V5.98713H19.216C19.5818 5.98713 19.8218 6.15859 19.9361 6.50151L20.119 7.37023C20.3248 7.14161 20.5381 6.93206 20.7591 6.74155C20.9877 6.55104 21.2278 6.3872 21.4793 6.25003C21.7383 6.11287 22.0127 6.00618 22.3022 5.92998C22.5994 5.84616 22.9233 5.80424 23.2738 5.80424C24.013 5.80424 24.6188 6.00618 25.0913 6.41006C25.5714 6.80632 25.9295 7.33593 26.1658 7.9989C26.3487 7.61027 26.5773 7.27878 26.8516 7.00445C27.1259 6.7225 27.4269 6.49389 27.7546 6.31862C28.0823 6.14335 28.429 6.0138 28.7948 5.92998C29.1682 5.84616 29.5416 5.80424 29.915 5.80424C30.5627 5.80424 31.138 5.90331 31.641 6.10144C32.1439 6.29957 32.5669 6.58914 32.9098 6.97016C33.2527 7.35117 33.5118 7.81602 33.687 8.36468C33.8699 8.91335 33.9614 9.54202 33.9614 10.2507V17.7148H31.138V10.2507C31.138 9.50392 30.9742 8.94383 30.6465 8.57043C30.3189 8.18941 29.8388 7.9989 29.2063 7.9989C28.9167 7.9989 28.6462 8.04844 28.3947 8.1475C28.1509 8.24656 27.9337 8.39135 27.7432 8.58186C27.5603 8.76475 27.4155 8.99717 27.3088 9.27912C27.2021 9.56107 27.1488 9.88494 27.1488 10.2507V17.7148H24.314V10.2507C24.314 9.46582 24.154 8.89429 23.8339 8.53614C23.5215 8.17798 23.0567 7.9989 22.4394 7.9989C22.0355 7.9989 21.6545 8.10178 21.2964 8.30753C20.9458 8.50566 20.6182 8.77999 20.3133 9.13052V17.7148H17.49ZM45.9245 17.7148H44.6557C44.389 17.7148 44.1794 17.6767 44.027 17.6005C43.8746 17.5167 43.7603 17.3529 43.6841 17.109L43.4326 16.2746C43.1354 16.5413 42.8421 16.7775 42.5525 16.9833C42.2705 17.1814 41.9771 17.3491 41.6723 17.4862C41.3675 17.6234 41.0437 17.7263 40.7007 17.7949C40.3578 17.8634 39.9768 17.8977 39.5577 17.8977C39.0624 17.8977 38.6051 17.833 38.186 17.7034C37.7669 17.5662 37.4049 17.3643 37.1001 17.0976C36.8029 16.8309 36.5705 16.4994 36.4029 16.1031C36.2352 15.7069 36.1514 15.2459 36.1514 14.72C36.1514 14.2781 36.2657 13.8437 36.4943 13.417C36.7305 12.9826 37.1192 12.594 37.6602 12.2511C38.2013 11.9005 38.9214 11.6109 39.8206 11.3823C40.7198 11.1537 41.8362 11.0242 43.1697 10.9937V10.3079C43.1697 9.52297 43.0021 8.94383 42.6668 8.57043C42.3391 8.18941 41.859 7.9989 41.2265 7.9989C40.7693 7.9989 40.3883 8.05225 40.0835 8.15893C39.7787 8.26562 39.512 8.38754 39.2834 8.52471C39.0624 8.65425 38.8566 8.77237 38.6661 8.87905C38.4756 8.98574 38.266 9.03908 38.0374 9.03908C37.8469 9.03908 37.6831 8.98955 37.5459 8.89048C37.4087 8.79142 37.2983 8.66949 37.2144 8.52471L36.7001 7.6217C38.0489 6.3872 39.6758 5.76995 41.5809 5.76995C42.2667 5.76995 42.8763 5.88426 43.4098 6.11287C43.9508 6.33386 44.408 6.64629 44.7814 7.05017C45.1548 7.44643 45.4368 7.9227 45.6273 8.47899C45.8254 9.03527 45.9245 9.6449 45.9245 10.3079V17.7148ZM40.4378 15.9545C40.7274 15.9545 40.9941 15.9279 41.238 15.8745C41.4818 15.8212 41.7104 15.7412 41.9238 15.6345C42.1448 15.5278 42.3544 15.3983 42.5525 15.2459C42.7582 15.0858 42.964 14.8991 43.1697 14.6858V12.7083C42.3467 12.7464 41.6571 12.8188 41.1008 12.9255C40.5521 13.0245 40.1102 13.1541 39.7749 13.3141C39.4396 13.4741 39.1995 13.6608 39.0547 13.8742C38.9176 14.0876 38.849 14.32 38.849 14.5715C38.849 15.0668 38.9938 15.4211 39.2834 15.6345C39.5805 15.8479 39.9654 15.9545 40.4378 15.9545ZM53.1211 17.7148V5.98713H54.8471C55.2128 5.98713 55.4529 6.15859 55.5672 6.50151L55.7615 7.42738C55.9977 7.18353 56.2454 6.96254 56.5045 6.76441C56.7712 6.56628 57.0494 6.39482 57.3389 6.25003C57.6361 6.10525 57.9524 5.99475 58.2877 5.91855C58.623 5.84235 58.9887 5.80424 59.385 5.80424C60.0251 5.80424 60.5928 5.91474 61.0881 6.13573C61.5835 6.3491 61.995 6.65391 62.3226 7.05017C62.6579 7.43881 62.9094 7.90746 63.077 8.45612C63.2523 8.99717 63.3399 9.59537 63.3399 10.2507V17.7148H60.5166V10.2507C60.5166 9.5344 60.349 8.98193 60.0137 8.59329C59.686 8.19703 59.1907 7.9989 58.5277 7.9989C58.04 7.9989 57.5828 8.1094 57.156 8.33039C56.7293 8.55138 56.3254 8.85238 55.9444 9.2334V17.7148H53.1211ZM71.1209 5.80424C71.9973 5.80424 72.7898 5.94522 73.4985 6.22717C74.2148 6.50913 74.8244 6.90919 75.3273 7.42738C75.8303 7.94556 76.2189 8.57805 76.4933 9.32484C76.7676 10.0716 76.9048 10.9061 76.9048 11.8281C76.9048 12.7578 76.7676 13.596 76.4933 14.3428C76.2189 15.0896 75.8303 15.7259 75.3273 16.2517C74.8244 16.7775 74.2148 17.1814 73.4985 17.4634C72.7898 17.7453 71.9973 17.8863 71.1209 17.8863C70.2446 17.8863 69.4483 17.7453 68.7319 17.4634C68.0156 17.1814 67.4022 16.7775 66.8916 16.2517C66.3887 15.7259 65.9962 15.0896 65.7143 14.3428C65.4399 13.596 65.3028 12.7578 65.3028 11.8281C65.3028 10.9061 65.4399 10.0716 65.7143 9.32484C65.9962 8.57805 66.3887 7.94556 66.8916 7.42738C67.4022 6.90919 68.0156 6.50913 68.7319 6.22717C69.4483 5.94522 70.2446 5.80424 71.1209 5.80424ZM71.1209 15.7145C72.0963 15.7145 72.8164 15.3868 73.2813 14.7315C73.7537 14.0761 73.99 13.116 73.99 11.851C73.99 10.586 73.7537 9.62204 73.2813 8.95907C72.8164 8.2961 72.0963 7.96461 71.1209 7.96461C70.1303 7.96461 69.3987 8.29991 68.9263 8.9705C68.4538 9.63347 68.2176 10.5936 68.2176 11.851C68.2176 13.1083 68.4538 14.0685 68.9263 14.7315C69.3987 15.3868 70.1303 15.7145 71.1209 15.7145ZM84.6034 17.7148H82.043L77.3793 5.98713H79.7226C79.9283 5.98713 80.0998 6.03667 80.2369 6.13573C80.3817 6.23479 80.4808 6.36053 80.5341 6.51294L82.7974 12.7769C82.9269 13.1426 83.0336 13.5008 83.1174 13.8513C83.2089 14.2019 83.2889 14.5524 83.3575 14.9029C83.426 14.5524 83.5023 14.2019 83.5861 13.8513C83.6775 13.5008 83.7918 13.1426 83.929 12.7769L86.2494 6.51294C86.3027 6.36053 86.398 6.23479 86.5351 6.13573C86.6723 6.03667 86.8362 5.98713 87.0267 5.98713H89.2556L84.6034 17.7148ZM100.108 17.7148H98.839C98.5723 17.7148 98.3628 17.6767 98.2104 17.6005C98.0579 17.5167 97.9436 17.3529 97.8674 17.109L97.616 16.2746C97.3188 16.5413 97.0254 16.7775 96.7358 16.9833C96.4539 17.1814 96.1605 17.3491 95.8557 17.4862C95.5508 17.6234 95.227 17.7263 94.8841 17.7949C94.5412 17.8634 94.1601 17.8977 93.741 17.8977C93.2457 17.8977 92.7885 17.833 92.3694 17.7034C91.9502 17.5662 91.5883 17.3643 91.2835 17.0976C90.9863 16.8309 90.7538 16.4994 90.5862 16.1031C90.4185 15.7069 90.3347 15.2459 90.3347 14.72C90.3347 14.2781 90.449 13.8437 90.6776 13.417C90.9139 12.9826 91.3025 12.594 91.8436 12.2511C92.3846 11.9005 93.1047 11.6109 94.0039 11.3823C94.9031 11.1537 96.0195 11.0242 97.3531 10.9937V10.3079C97.3531 9.52297 97.1854 8.94383 96.8501 8.57043C96.5224 8.18941 96.0424 7.9989 95.4099 7.9989C94.9527 7.9989 94.5716 8.05225 94.2668 8.15893C93.962 8.26562 93.6953 8.38754 93.4667 8.52471C93.2457 8.65425 93.0399 8.77237 92.8494 8.87905C92.6589 8.98574 92.4494 9.03908 92.2208 9.03908C92.0303 9.03908 91.8664 8.98955 91.7292 8.89048C91.5921 8.79142 91.4816 8.66949 91.3978 8.52471L90.8834 7.6217C92.2322 6.3872 93.8591 5.76995 95.7642 5.76995C96.4501 5.76995 97.0597 5.88426 97.5931 6.11287C98.1341 6.33386 98.5914 6.64629 98.9648 7.05017C99.3382 7.44643 99.6201 7.9227 99.8106 8.47899C100.009 9.03527 100.108 9.6449 100.108 10.3079V17.7148ZM94.6212 15.9545C94.9107 15.9545 95.1775 15.9279 95.4213 15.8745C95.6652 15.8212 95.8938 15.7412 96.1071 15.6345C96.3281 15.5278 96.5377 15.3983 96.7358 15.2459C96.9416 15.0858 97.1473 14.8991 97.3531 14.6858V12.7083C96.5301 12.7464 95.8404 12.8188 95.2841 12.9255C94.7355 13.0245 94.2935 13.1541 93.9582 13.3141C93.6229 13.4741 93.3829 13.6608 93.2381 13.8742C93.1009 14.0876 93.0323 14.32 93.0323 14.5715C93.0323 15.0668 93.1771 15.4211 93.4667 15.6345C93.7639 15.8479 94.1487 15.9545 94.6212 15.9545ZM112.151 5.80424C112.89 5.80424 113.568 5.92236 114.186 6.15859C114.81 6.39482 115.348 6.74155 115.797 7.19877C116.247 7.64837 116.597 8.20465 116.849 8.86762C117.1 9.52297 117.226 10.2736 117.226 11.1194C117.226 11.3328 117.215 11.5119 117.192 11.6567C117.177 11.7938 117.142 11.9043 117.089 11.9882C117.043 12.0644 116.978 12.1215 116.895 12.1596C116.811 12.1901 116.704 12.2053 116.575 12.2053H109.328C109.411 13.4093 109.735 14.2933 110.299 14.8572C110.863 15.4211 111.61 15.7031 112.54 15.7031C112.997 15.7031 113.389 15.6497 113.717 15.543C114.052 15.4364 114.342 15.3182 114.586 15.1887C114.837 15.0592 115.054 14.941 115.237 14.8344C115.428 14.7277 115.611 14.6743 115.786 14.6743C115.9 14.6743 115.999 14.6972 116.083 14.7429C116.167 14.7886 116.239 14.8534 116.3 14.9372L117.123 15.966C116.811 16.3318 116.46 16.6404 116.072 16.8918C115.683 17.1357 115.275 17.3338 114.849 17.4862C114.429 17.631 113.999 17.7339 113.557 17.7949C113.123 17.8558 112.7 17.8863 112.288 17.8863C111.473 17.8863 110.715 17.7529 110.013 17.4862C109.312 17.2119 108.703 16.8118 108.185 16.286C107.666 15.7526 107.259 15.0973 106.961 14.32C106.664 13.5351 106.516 12.6283 106.516 11.5995C106.516 10.7994 106.645 10.0488 106.904 9.3477C107.163 8.63901 107.533 8.02557 108.013 7.50739C108.501 6.98159 109.091 6.56628 109.785 6.26146C110.486 5.95665 111.275 5.80424 112.151 5.80424ZM112.208 7.82745C111.385 7.82745 110.741 8.05987 110.276 8.52471C109.811 8.98955 109.514 9.64871 109.385 10.5022H114.689C114.689 10.1364 114.639 9.7935 114.54 9.47344C114.441 9.14577 114.288 8.86 114.083 8.61615C113.877 8.3723 113.618 8.18179 113.305 8.04463C112.993 7.89984 112.627 7.82745 112.208 7.82745ZM121.602 11.6681L117.75 5.98713H120.47C120.676 5.98713 120.828 6.01761 120.927 6.07858C121.026 6.13192 121.114 6.22336 121.19 6.35291L123.648 10.2736C123.686 10.144 123.732 10.0145 123.785 9.88494C123.846 9.75539 123.918 9.62585 124.002 9.4963L125.98 6.41006C126.071 6.26528 126.166 6.15859 126.265 6.09001C126.365 6.02142 126.486 5.98713 126.631 5.98713H129.226L125.362 11.5424L129.386 17.7148H126.666C126.46 17.7148 126.292 17.6615 126.163 17.5548C126.041 17.4481 125.938 17.3262 125.854 17.189L123.362 13.1083C123.294 13.3827 123.198 13.6113 123.076 13.7942L120.882 17.189C120.798 17.3186 120.695 17.4405 120.573 17.5548C120.451 17.6615 120.299 17.7148 120.116 17.7148H117.59L121.602 11.6681ZM131.17 21.5441V5.98713H132.896C133.079 5.98713 133.235 6.02904 133.365 6.11287C133.494 6.19669 133.578 6.32624 133.616 6.50151L133.845 7.58741C134.317 7.04636 134.858 6.60819 135.468 6.2729C136.085 5.9376 136.805 5.76995 137.628 5.76995C138.268 5.76995 138.851 5.90331 139.377 6.17002C139.911 6.43673 140.368 6.82537 140.749 7.33593C141.137 7.83888 141.435 8.46374 141.64 9.21054C141.854 9.94971 141.96 10.7994 141.96 11.7595C141.96 12.6359 141.842 13.4475 141.606 14.1942C141.37 14.941 141.031 15.5888 140.589 16.1374C140.154 16.6861 139.625 17.1166 139 17.4291C138.383 17.7339 137.689 17.8863 136.92 17.8863C136.257 17.8863 135.693 17.7872 135.228 17.5891C134.771 17.3834 134.359 17.1014 133.993 16.7432V21.5441H131.17ZM136.657 7.9989C136.07 7.9989 135.567 8.12464 135.148 8.37611C134.736 8.61996 134.352 8.96669 133.993 9.41629V14.6743C134.313 15.0706 134.66 15.3487 135.034 15.5088C135.415 15.6612 135.822 15.7374 136.257 15.7374C136.683 15.7374 137.068 15.6574 137.411 15.4973C137.762 15.3373 138.055 15.0934 138.291 14.7658C138.535 14.4381 138.722 14.0266 138.851 13.5313C138.981 13.0283 139.046 12.4378 139.046 11.7595C139.046 11.0737 138.989 10.4946 138.874 10.0221C138.768 9.54202 138.611 9.15339 138.406 8.85619C138.2 8.559 137.948 8.34182 137.651 8.20465C137.362 8.06749 137.03 7.9989 136.657 7.9989ZM148.943 5.80424C149.682 5.80424 150.36 5.92236 150.978 6.15859C151.602 6.39482 152.14 6.74155 152.589 7.19877C153.039 7.64837 153.389 8.20465 153.641 8.86762C153.892 9.52297 154.018 10.2736 154.018 11.1194C154.018 11.3328 154.007 11.5119 153.984 11.6567C153.969 11.7938 153.934 11.9043 153.881 11.9882C153.835 12.0644 153.77 12.1215 153.687 12.1596C153.603 12.1901 153.496 12.2053 153.367 12.2053H146.12C146.203 13.4093 146.527 14.2933 147.091 14.8572C147.655 15.4211 148.402 15.7031 149.332 15.7031C149.789 15.7031 150.181 15.6497 150.509 15.543C150.844 15.4364 151.134 15.3182 151.378 15.1887C151.629 15.0592 151.846 14.941 152.029 14.8344C152.22 14.7277 152.403 14.6743 152.578 14.6743C152.692 14.6743 152.791 14.6972 152.875 14.7429C152.959 14.7886 153.031 14.8534 153.092 14.9372L153.915 15.966C153.603 16.3318 153.252 16.6404 152.864 16.8918C152.475 17.1357 152.067 17.3338 151.641 17.4862C151.221 17.631 150.791 17.7339 150.349 17.7949C149.915 17.8558 149.492 17.8863 149.08 17.8863C148.265 17.8863 147.506 17.7529 146.805 17.4862C146.104 17.2119 145.495 16.8118 144.977 16.286C144.458 15.7526 144.051 15.0973 143.753 14.32C143.456 13.5351 143.308 12.6283 143.308 11.5995C143.308 10.7994 143.437 10.0488 143.696 9.3477C143.955 8.63901 144.325 8.02557 144.805 7.50739C145.293 6.98159 145.883 6.56628 146.577 6.26146C147.278 5.95665 148.067 5.80424 148.943 5.80424ZM149 7.82745C148.177 7.82745 147.533 8.05987 147.068 8.52471C146.603 8.98955 146.306 9.64871 146.177 10.5022H151.48C151.48 10.1364 151.431 9.7935 151.332 9.47344C151.233 9.14577 151.08 8.86 150.875 8.61615C150.669 8.3723 150.41 8.18179 150.097 8.04463C149.785 7.89984 149.419 7.82745 149 7.82745ZM156.308 17.7148V5.98713H157.966C158.255 5.98713 158.457 6.04048 158.572 6.14716C158.686 6.25384 158.762 6.43673 158.8 6.69582L158.972 8.11321C159.391 7.38928 159.882 6.81775 160.446 6.39863C161.01 5.97951 161.643 5.76995 162.344 5.76995C162.923 5.76995 163.403 5.90331 163.784 6.17002L163.418 8.28467C163.395 8.42183 163.346 8.5209 163.269 8.58186C163.193 8.6352 163.09 8.66187 162.961 8.66187C162.847 8.66187 162.69 8.6352 162.492 8.58186C162.294 8.52852 162.031 8.50185 161.703 8.50185C161.117 8.50185 160.614 8.66568 160.195 8.99336C159.776 9.31341 159.421 9.78587 159.132 10.4107V17.7148H156.308ZM168.646 5.98713V17.7148H165.823V5.98713H168.646ZM169.069 2.56941C169.069 2.81326 169.02 3.04187 168.921 3.25524C168.822 3.46861 168.688 3.65531 168.521 3.81533C168.361 3.97536 168.17 4.10491 167.949 4.20397C167.728 4.29542 167.492 4.34114 167.24 4.34114C166.997 4.34114 166.764 4.29542 166.543 4.20397C166.33 4.10491 166.143 3.97536 165.983 3.81533C165.823 3.65531 165.694 3.46861 165.594 3.25524C165.503 3.04187 165.457 2.81326 165.457 2.56941C165.457 2.31794 165.503 2.08171 165.594 1.86072C165.694 1.63973 165.823 1.44922 165.983 1.28919C166.143 1.12916 166.33 1.00343 166.543 0.911983C166.764 0.812919 166.997 0.763386 167.24 0.763386C167.492 0.763386 167.728 0.812919 167.949 0.911983C168.17 1.00343 168.361 1.12916 168.521 1.28919C168.688 1.44922 168.822 1.63973 168.921 1.86072C169.02 2.08171 169.069 2.31794 169.069 2.56941ZM176.693 5.80424C177.432 5.80424 178.111 5.92236 178.728 6.15859C179.353 6.39482 179.89 6.74155 180.34 7.19877C180.789 7.64837 181.14 8.20465 181.391 8.86762C181.643 9.52297 181.768 10.2736 181.768 11.1194C181.768 11.3328 181.757 11.5119 181.734 11.6567C181.719 11.7938 181.684 11.9043 181.631 11.9882C181.585 12.0644 181.521 12.1215 181.437 12.1596C181.353 12.1901 181.246 12.2053 181.117 12.2053H173.87C173.954 13.4093 174.278 14.2933 174.841 14.8572C175.405 15.4211 176.152 15.7031 177.082 15.7031C177.539 15.7031 177.931 15.6497 178.259 15.543C178.594 15.4364 178.884 15.3182 179.128 15.1887C179.379 15.0592 179.597 14.941 179.779 14.8344C179.97 14.7277 180.153 14.6743 180.328 14.6743C180.442 14.6743 180.541 14.6972 180.625 14.7429C180.709 14.7886 180.781 14.8534 180.842 14.9372L181.665 15.966C181.353 16.3318 181.002 16.6404 180.614 16.8918C180.225 17.1357 179.818 17.3338 179.391 17.4862C178.972 17.631 178.541 17.7339 178.099 17.7949C177.665 17.8558 177.242 17.8863 176.83 17.8863C176.015 17.8863 175.257 17.7529 174.556 17.4862C173.855 17.2119 173.245 16.8118 172.727 16.286C172.209 15.7526 171.801 15.0973 171.504 14.32C171.207 13.5351 171.058 12.6283 171.058 11.5995C171.058 10.7994 171.187 10.0488 171.447 9.3477C171.706 8.63901 172.075 8.02557 172.555 7.50739C173.043 6.98159 173.634 6.56628 174.327 6.26146C175.028 5.95665 175.817 5.80424 176.693 5.80424ZM176.75 7.82745C175.927 7.82745 175.283 8.05987 174.819 8.52471C174.354 8.98955 174.057 9.64871 173.927 10.5022H179.231C179.231 10.1364 179.181 9.7935 179.082 9.47344C178.983 9.14577 178.831 8.86 178.625 8.61615C178.419 8.3723 178.16 8.18179 177.848 8.04463C177.535 7.89984 177.169 7.82745 176.75 7.82745ZM180.705 4.364H178.819C178.583 4.364 178.393 4.29542 178.248 4.15825L177.048 3.07235C177.009 3.03425 176.967 2.99615 176.922 2.95805C176.884 2.91994 176.846 2.87422 176.807 2.82088C176.769 2.87422 176.727 2.91994 176.682 2.95805C176.644 2.99615 176.606 3.03425 176.567 3.07235L175.344 4.15825C175.283 4.21159 175.2 4.26112 175.093 4.30685C174.994 4.34495 174.887 4.364 174.773 4.364H172.818L175.436 1.18631H178.088L180.705 4.364ZM184.059 17.7148V5.98713H185.785C186.15 5.98713 186.39 6.15859 186.505 6.50151L186.699 7.42738C186.935 7.18353 187.183 6.96254 187.442 6.76441C187.709 6.56628 187.987 6.39482 188.276 6.25003C188.574 6.10525 188.89 5.99475 189.225 5.91855C189.56 5.84235 189.926 5.80424 190.322 5.80424C190.963 5.80424 191.53 5.91474 192.026 6.13573C192.521 6.3491 192.932 6.65391 193.26 7.05017C193.595 7.43881 193.847 7.90746 194.015 8.45612C194.19 8.99717 194.277 9.59537 194.277 10.2507V17.7148H191.454V10.2507C191.454 9.5344 191.286 8.98193 190.951 8.59329C190.623 8.19703 190.128 7.9989 189.465 7.9989C188.977 7.9989 188.52 8.1094 188.093 8.33039C187.667 8.55138 187.263 8.85238 186.882 9.2334V17.7148H184.059ZM205.293 8.46756C205.209 8.57424 205.126 8.65806 205.042 8.71903C204.966 8.77999 204.851 8.81047 204.699 8.81047C204.554 8.81047 204.413 8.76856 204.276 8.68473C204.139 8.59329 203.975 8.49423 203.784 8.38754C203.594 8.27324 203.365 8.17417 203.099 8.09035C202.839 7.9989 202.516 7.95318 202.127 7.95318C201.632 7.95318 201.197 8.04463 200.824 8.22751C200.45 8.40278 200.138 8.65806 199.887 8.99336C199.643 9.32865 199.46 9.73634 199.338 10.2164C199.216 10.6889 199.155 11.2261 199.155 11.8281C199.155 12.453 199.22 13.0093 199.349 13.497C199.487 13.9847 199.681 14.3962 199.932 14.7315C200.184 15.0592 200.489 15.3106 200.847 15.4859C201.205 15.6535 201.609 15.7374 202.058 15.7374C202.508 15.7374 202.87 15.684 203.144 15.5773C203.426 15.463 203.662 15.3411 203.853 15.2116C204.043 15.0744 204.207 14.9525 204.344 14.8458C204.489 14.7315 204.649 14.6743 204.825 14.6743C205.053 14.6743 205.225 14.762 205.339 14.9372L206.151 15.966C205.838 16.3318 205.499 16.6404 205.133 16.8918C204.767 17.1357 204.386 17.3338 203.99 17.4862C203.601 17.631 203.198 17.7339 202.779 17.7949C202.359 17.8558 201.944 17.8863 201.533 17.8863C200.809 17.8863 200.127 17.7529 199.487 17.4862C198.846 17.2119 198.286 16.8156 197.806 16.2975C197.334 15.7793 196.957 15.1468 196.675 14.4C196.4 13.6456 196.263 12.7883 196.263 11.8281C196.263 10.967 196.385 10.1707 196.629 9.43915C196.88 8.69998 197.246 8.06368 197.726 7.53025C198.206 6.98921 198.801 6.56628 199.509 6.26146C200.218 5.95665 201.033 5.80424 201.956 5.80424C202.832 5.80424 203.598 5.94522 204.253 6.22717C204.916 6.50913 205.51 6.913 206.036 7.43881L205.293 8.46756ZM210.953 5.98713V17.7148H208.129V5.98713H210.953ZM211.376 2.56941C211.376 2.81326 211.326 3.04187 211.227 3.25524C211.128 3.46861 210.995 3.65531 210.827 3.81533C210.667 3.97536 210.476 4.10491 210.255 4.20397C210.035 4.29542 209.798 4.34114 209.547 4.34114C209.303 4.34114 209.071 4.29542 208.85 4.20397C208.636 4.10491 208.449 3.97536 208.289 3.81533C208.129 3.65531 208 3.46861 207.901 3.25524C207.809 3.04187 207.764 2.81326 207.764 2.56941C207.764 2.31794 207.809 2.08171 207.901 1.86072C208 1.63973 208.129 1.44922 208.289 1.28919C208.449 1.12916 208.636 1.00343 208.85 0.911983C209.071 0.812919 209.303 0.763386 209.547 0.763386C209.798 0.763386 210.035 0.812919 210.255 0.911983C210.476 1.00343 210.667 1.12916 210.827 1.28919C210.995 1.44922 211.128 1.63973 211.227 1.86072C211.326 2.08171 211.376 2.31794 211.376 2.56941ZM223.343 17.7148H222.074C221.808 17.7148 221.598 17.6767 221.446 17.6005C221.293 17.5167 221.179 17.3529 221.103 17.109L220.851 16.2746C220.554 16.5413 220.261 16.7775 219.971 16.9833C219.689 17.1814 219.396 17.3491 219.091 17.4862C218.786 17.6234 218.462 17.7263 218.119 17.7949C217.776 17.8634 217.395 17.8977 216.976 17.8977C216.481 17.8977 216.024 17.833 215.605 17.7034C215.186 17.5662 214.824 17.3643 214.519 17.0976C214.222 16.8309 213.989 16.4994 213.821 16.1031C213.654 15.7069 213.57 15.2459 213.57 14.72C213.57 14.2781 213.684 13.8437 213.913 13.417C214.149 12.9826 214.538 12.594 215.079 12.2511C215.62 11.9005 216.34 11.6109 217.239 11.3823C218.138 11.1537 219.255 11.0242 220.588 10.9937V10.3079C220.588 9.52297 220.421 8.94383 220.085 8.57043C219.758 8.18941 219.278 7.9989 218.645 7.9989C218.188 7.9989 217.807 8.05225 217.502 8.15893C217.197 8.26562 216.931 8.38754 216.702 8.52471C216.481 8.65425 216.275 8.77237 216.085 8.87905C215.894 8.98574 215.685 9.03908 215.456 9.03908C215.266 9.03908 215.102 8.98955 214.965 8.89048C214.827 8.79142 214.717 8.66949 214.633 8.52471L214.119 7.6217C215.467 6.3872 217.094 5.76995 218.999 5.76995C219.685 5.76995 220.295 5.88426 220.828 6.11287C221.369 6.33386 221.827 6.64629 222.2 7.05017C222.573 7.44643 222.855 7.9227 223.046 8.47899C223.244 9.03527 223.343 9.6449 223.343 10.3079V17.7148ZM217.856 15.9545C218.146 15.9545 218.413 15.9279 218.657 15.8745C218.9 15.8212 219.129 15.7412 219.342 15.6345C219.563 15.5278 219.773 15.3983 219.971 15.2459C220.177 15.0858 220.383 14.8991 220.588 14.6858V12.7083C219.765 12.7464 219.076 12.8188 218.519 12.9255C217.971 13.0245 217.529 13.1541 217.193 13.3141C216.858 13.4741 216.618 13.6608 216.473 13.8742C216.336 14.0876 216.268 14.32 216.268 14.5715C216.268 15.0668 216.412 15.4211 216.702 15.6345C216.999 15.8479 217.384 15.9545 217.856 15.9545ZM230.097 1.18631V7.72457C230.097 8.41802 230.063 9.10004 229.994 9.77063C229.926 10.4336 229.834 11.1385 229.72 11.8853H227.811C227.697 11.1385 227.605 10.4336 227.537 9.77063C227.468 9.10004 227.434 8.41802 227.434 7.72457V1.18631H230.097ZM226.999 16.1603C226.999 15.9241 227.041 15.6993 227.125 15.4859C227.217 15.2725 227.339 15.0896 227.491 14.9372C227.651 14.7848 227.838 14.6629 228.051 14.5715C228.264 14.48 228.493 14.4343 228.737 14.4343C228.973 14.4343 229.198 14.48 229.411 14.5715C229.625 14.6629 229.808 14.7848 229.96 14.9372C230.112 15.0896 230.234 15.2725 230.326 15.4859C230.417 15.6993 230.463 15.9241 230.463 16.1603C230.463 16.4041 230.417 16.6328 230.326 16.8461C230.234 17.0519 230.112 17.231 229.96 17.3834C229.808 17.5358 229.625 17.6539 229.411 17.7377C229.198 17.8291 228.973 17.8749 228.737 17.8749C228.493 17.8749 228.264 17.8291 228.051 17.7377C227.838 17.6539 227.651 17.5358 227.491 17.3834C227.339 17.231 227.217 17.0519 227.125 16.8461C227.041 16.6328 226.999 16.4041 226.999 16.1603Z" fill="#1D0605" fill-opacity="0.9"/>
</svg>
